<svg width="25" height="24" viewBox="0 0 25 24" fill="none" xmlns="http://www.w3.org/2000/svg">
<g clip-path="url(#clip0_716_21818)">
<path d="M19.652 0H5.348C2.669 0 0.5 2.169 0.5 4.848V19.155C0.5 21.831 2.669 24 5.348 24H19.655C22.331 24 24.503 21.831 24.503 19.152V4.848C24.5 2.169 22.331 0 19.652 0Z" fill="url(#paint0_linear_716_21818)"/>
<path d="M12.3982 5.51385L12.8842 4.67385C13.1842 4.14885 13.8532 3.97185 14.3782 4.27185C14.9032 4.57185 15.0802 5.24085 14.7802 5.76585L10.0972 13.8718H13.4842C14.5822 13.8718 15.1972 15.1618 14.7202 16.0558H4.79024C4.18424 16.0558 3.69824 15.5698 3.69824 14.9638C3.69824 14.3578 4.18424 13.8718 4.79024 13.8718H7.57424L11.1382 7.69485L10.0252 5.76285C9.72524 5.23785 9.90224 4.57485 10.4272 4.26885C10.9522 3.96885 11.6152 4.14585 11.9212 4.67085L12.3982 5.51385ZM8.18624 17.1808L7.13624 19.0018C6.83624 19.5268 6.16724 19.7038 5.64224 19.4038C5.11724 19.1038 4.94024 18.4348 5.24024 17.9098L6.02024 16.5598C6.90224 16.2868 7.61924 16.4968 8.18624 17.1808ZM17.2282 13.8778H20.0692C20.6752 13.8778 21.1612 14.3638 21.1612 14.9698C21.1612 15.5758 20.6752 16.0618 20.0692 16.0618H18.4912L19.5562 17.9098C19.8562 18.4348 19.6792 19.0978 19.1542 19.4038C18.6292 19.7038 17.9662 19.5268 17.6602 19.0018C15.8662 15.8908 14.5192 13.5628 13.6252 12.0118C12.7102 10.4338 13.3642 8.84985 14.0092 8.31285C14.7262 9.54285 15.7972 11.3998 17.2282 13.8778Z" fill="white"/>
</g>
<defs>
<linearGradient id="paint0_linear_716_21818" x1="12.5015" y1="0" x2="12.5015" y2="24" gradientUnits="userSpaceOnUse">
<stop stop-color="#18BFFB"/>
<stop offset="1" stop-color="#2072F3"/>
</linearGradient>
<clipPath id="clip0_716_21818">
<rect width="24" height="24" fill="white" transform="translate(0.5)"/>
</clipPath>
</defs>
</svg>
