<svg width="32" height="32" viewBox="0 0 32 32" fill="none" xmlns="http://www.w3.org/2000/svg">
<path fill-rule="evenodd" clip-rule="evenodd" d="M15.9993 0.166748C7.25484 0.166748 0.166016 7.25557 0.166016 16.0001C0.166016 24.7446 7.25484 31.8334 15.9993 31.8334C24.7439 31.8334 31.8327 24.7446 31.8327 16.0001C31.8327 7.25557 24.7439 0.166748 15.9993 0.166748ZM21.6684 12.7937C22.0837 12.2861 22.0089 11.538 21.5013 11.1227C20.9937 10.7074 20.2456 10.7822 19.8303 11.2898L13.5362 18.9825L11.2974 16.7437C10.8336 16.28 10.0817 16.28 9.61799 16.7437C9.15425 17.2075 9.15425 17.9594 9.61799 18.4231L12.7847 21.5898C13.0219 21.827 13.3484 21.9528 13.6835 21.9361C14.0186 21.9194 14.331 21.7617 14.5434 21.502L21.6684 12.7937Z" fill="#F8F8F8" fill-opacity="0.7"/>
</svg>
