<svg width="32" height="32" viewBox="0 0 32 32" fill="none" xmlns="http://www.w3.org/2000/svg">
<path d="M32 16C32 24.8366 24.8366 32 16 32C7.16344 32 0 24.8366 0 16C0 7.16344 7.16344 0 16 0C24.8366 0 32 7.16344 32 16ZM6.4 16C6.4 21.3019 10.6981 25.6 16 25.6C21.3019 25.6 25.6 21.3019 25.6 16C25.6 10.6981 21.3019 6.4 16 6.4C10.6981 6.4 6.4 10.6981 6.4 16Z" fill="#F8F8F8" fill-opacity="0.05"/>
<path d="M16 2C16 0.895432 16.8989 -0.0128754 17.9948 0.124839C19.4105 0.302736 20.7991 0.669597 22.1229 1.21793C24.0641 2.022 25.828 3.20055 27.3137 4.68629C28.7994 6.17203 29.978 7.93586 30.7821 9.87707C31.3304 11.2009 31.6973 12.5895 31.8752 14.0052C32.0129 15.1011 31.1046 16 30 16L27.6 16C26.4954 16 25.6209 15.0951 25.3924 14.0144C25.2706 13.4382 25.0957 12.873 24.8692 12.3262C24.3868 11.1615 23.6797 10.1032 22.7882 9.21178C21.8968 8.32033 20.8385 7.6132 19.6738 7.13076C19.127 6.90428 18.5618 6.7294 17.9856 6.60758C16.9049 6.37912 16 5.50457 16 4.4L16 2Z" fill="#F8F8F8" fill-opacity="0.7"/>
</svg>
