<svg width="776" height="360" viewBox="0 0 776 360" fill="none" xmlns="http://www.w3.org/2000/svg">
<g clip-path="url(#clip0_743_42966)">
<circle cx="591.5" cy="259.5" r="0.5" fill="white" fill-opacity="0.3"/>
<circle cx="246.5" cy="229.5" r="0.5" fill="white" fill-opacity="0.3"/>
<circle cx="740.5" cy="234.5" r="0.5" fill="white" fill-opacity="0.5"/>
<circle cx="34.5" cy="38.5" r="0.5" fill="white" fill-opacity="0.4"/>
<circle cx="584.5" cy="127.5" r="0.5" fill="white" fill-opacity="0.4"/>
<circle cx="159.5" cy="129.5" r="0.5" fill="white" fill-opacity="0.6"/>
<circle cx="209.5" cy="210.5" r="0.5" fill="white" fill-opacity="0.3"/>
<circle cx="326.5" cy="165.5" r="0.5" fill="white" fill-opacity="0.5"/>
<circle cx="205.5" cy="271.5" r="0.5" fill="white" fill-opacity="0.6"/>
<g filter="url(#filter0_d_743_42966)">
<circle cx="697.5" cy="51.5" r="0.5" fill="white" fill-opacity="0.6" shape-rendering="crispEdges"/>
</g>
<circle cx="100.5" cy="338.5" r="0.5" fill="white" fill-opacity="0.5"/>
<circle cx="361.5" cy="233.5" r="0.5" fill="white" fill-opacity="0.5"/>
<circle cx="2.5" cy="287.5" r="0.5" fill="white" fill-opacity="0.4"/>
<circle cx="52.5" cy="170.5" r="0.5" fill="white" fill-opacity="0.3"/>
<circle cx="547.5" cy="289.5" r="0.5" fill="white" fill-opacity="0.3"/>
<circle cx="682.5" cy="114.5" r="0.5" fill="white" fill-opacity="0.5"/>
<circle cx="273.5" cy="64.5" r="0.5" fill="white" fill-opacity="0.4"/>
<circle cx="580.5" cy="252.5" r="0.5" fill="white" fill-opacity="0.3"/>
<circle cx="57.5" cy="320.5" r="0.5" fill="white" fill-opacity="0.4"/>
<circle cx="670.5" cy="145.5" r="0.5" fill="white" fill-opacity="0.5"/>
<circle cx="767.5" cy="267.5" r="0.5" fill="white" fill-opacity="0.3"/>
<circle cx="653.5" cy="262.5" r="0.5" fill="white" fill-opacity="0.4"/>
<circle cx="472.5" cy="38.5" r="0.5" fill="white" fill-opacity="0.6"/>
<circle cx="333.5" cy="17.5" r="0.5" fill="white" fill-opacity="0.5"/>
<circle cx="674.5" cy="50.5" r="0.5" fill="white" fill-opacity="0.6"/>
<circle cx="143.5" cy="122.5" r="0.5" fill="white" fill-opacity="0.6"/>
<circle cx="232.5" cy="135.5" r="0.5" fill="white" fill-opacity="0.4"/>
<circle cx="194.5" cy="221.5" r="0.5" fill="white" fill-opacity="0.6"/>
<circle cx="40.5" cy="261.5" r="0.5" fill="white" fill-opacity="0.3"/>
<circle cx="532.5" cy="166.5" r="0.5" fill="white" fill-opacity="0.6"/>
<circle cx="576.5" cy="6.5" r="0.5" fill="white" fill-opacity="0.5"/>
<circle cx="346.5" cy="223.5" r="0.5" fill="white" fill-opacity="0.5"/>
<circle cx="262.5" cy="149.5" r="0.5" fill="white" fill-opacity="0.5"/>
<circle cx="23.5" cy="98.5" r="0.5" fill="white" fill-opacity="0.6"/>
<circle cx="38.5" cy="93.5" r="0.5" fill="white" fill-opacity="0.4"/>
<circle cx="60.5" cy="320.5" r="0.5" fill="white" fill-opacity="0.5"/>
<circle cx="610.5" cy="274.5" r="0.5" fill="white" fill-opacity="0.4"/>
<circle cx="89.5" cy="34.5" r="0.5" fill="white" fill-opacity="0.3"/>
<circle cx="637.5" cy="291.5" r="0.5" fill="white" fill-opacity="0.6"/>
<circle cx="35.5" cy="88.5" r="0.5" fill="white" fill-opacity="0.6"/>
<circle cx="430.5" cy="1.5" r="0.5" fill="white" fill-opacity="0.3"/>
<circle cx="392.5" cy="43.5" r="0.5" fill="white" fill-opacity="0.5"/>
<circle cx="26.5" cy="66.5" r="0.5" fill="white" fill-opacity="0.6"/>
<circle cx="520.5" cy="4.5" r="0.5" fill="white" fill-opacity="0.6"/>
<circle cx="699.5" cy="171.5" r="0.5" fill="white" fill-opacity="0.4"/>
<circle cx="427.5" cy="307.5" r="0.5" fill="white" fill-opacity="0.4"/>
<circle cx="668.5" cy="140.5" r="0.5" fill="white" fill-opacity="0.5"/>
<circle cx="607.5" cy="86.5" r="0.5" fill="white" fill-opacity="0.4"/>
<g filter="url(#filter1_d_743_42966)">
<circle cx="41.5" cy="274.5" r="0.5" fill="white" fill-opacity="0.6" shape-rendering="crispEdges"/>
</g>
<circle cx="667.5" cy="205.5" r="0.5" fill="white" fill-opacity="0.4"/>
<g filter="url(#filter2_d_743_42966)">
<circle cx="16.5" cy="20.5" r="0.5" fill="white" fill-opacity="0.6" shape-rendering="crispEdges"/>
</g>
<g filter="url(#filter3_d_743_42966)">
<circle cx="481.5" cy="0.5" r="0.5" fill="white" fill-opacity="0.6" shape-rendering="crispEdges"/>
</g>
<circle cx="739.5" cy="158.5" r="0.5" fill="white" fill-opacity="0.5"/>
<circle cx="688.5" cy="270.5" r="0.5" fill="white" fill-opacity="0.6"/>
<circle cx="672.5" cy="109.5" r="0.5" fill="white" fill-opacity="0.6"/>
<circle cx="59.5" cy="336.5" r="0.5" fill="white" fill-opacity="0.5"/>
<circle cx="664.5" cy="207.5" r="0.5" fill="white" fill-opacity="0.4"/>
<circle cx="304.5" cy="13.5" r="0.5" fill="white" fill-opacity="0.5"/>
<circle cx="49.5" cy="83.5" r="0.5" fill="white" fill-opacity="0.5"/>
<circle cx="454.5" cy="293.5" r="0.5" fill="white" fill-opacity="0.5"/>
<circle cx="750.5" cy="140.5" r="0.5" fill="white" fill-opacity="0.5"/>
<circle cx="146.5" cy="43.5" r="0.5" fill="white" fill-opacity="0.5"/>
<circle cx="653.5" cy="97.5" r="0.5" fill="white" fill-opacity="0.3"/>
<circle cx="39.5" cy="52.5" r="0.5" fill="white" fill-opacity="0.4"/>
<circle cx="333.5" cy="154.5" r="0.5" fill="white" fill-opacity="0.6"/>
<circle cx="390.5" cy="123.5" r="0.5" fill="white" fill-opacity="0.3"/>
<circle cx="746.5" cy="359.5" r="0.5" fill="white" fill-opacity="0.5"/>
<circle cx="105.5" cy="350.5" r="0.5" fill="white" fill-opacity="0.6"/>
<circle cx="419.5" cy="350.5" r="0.5" fill="white" fill-opacity="0.5"/>
<circle cx="598.5" cy="138.5" r="0.5" fill="white" fill-opacity="0.6"/>
<circle cx="410.5" cy="72.5" r="0.5" fill="white" fill-opacity="0.5"/>
<circle cx="229.5" cy="73.5" r="0.5" fill="white" fill-opacity="0.6"/>
<circle cx="138.5" cy="189.5" r="0.5" fill="white" fill-opacity="0.3"/>
<circle cx="724.5" cy="141.5" r="0.5" fill="white" fill-opacity="0.3"/>
<circle cx="536.5" cy="240.5" r="0.5" fill="white" fill-opacity="0.5"/>
<circle cx="576.5" cy="225.5" r="0.5" fill="white" fill-opacity="0.4"/>
<circle cx="677.5" cy="265.5" r="0.5" fill="white" fill-opacity="0.4"/>
<circle cx="74.5" cy="273.5" r="0.5" fill="white" fill-opacity="0.6"/>
<circle cx="246.5" cy="30.5" r="0.5" fill="white" fill-opacity="0.4"/>
<circle cx="512.5" cy="15.5" r="0.5" fill="white" fill-opacity="0.3"/>
<circle cx="172.5" cy="126.5" r="0.5" fill="white" fill-opacity="0.5"/>
<circle cx="168.5" cy="239.5" r="0.5" fill="white" fill-opacity="0.4"/>
<circle cx="56.5" cy="37.5" r="0.5" fill="white" fill-opacity="0.5"/>
<circle cx="609.5" cy="203.5" r="0.5" fill="white" fill-opacity="0.5"/>
<circle cx="541.5" cy="110.5" r="0.5" fill="white" fill-opacity="0.4"/>
<circle cx="565.5" cy="186.5" r="0.5" fill="white" fill-opacity="0.4"/>
<circle cx="506.5" cy="168.5" r="0.5" fill="white" fill-opacity="0.4"/>
<circle cx="128.5" cy="158.5" r="0.5" fill="white" fill-opacity="0.4"/>
<circle cx="339.5" cy="77.5" r="0.5" fill="white" fill-opacity="0.3"/>
<circle cx="105.5" cy="155.5" r="0.5" fill="white" fill-opacity="0.4"/>
<circle cx="475.5" cy="276.5" r="0.5" fill="white" fill-opacity="0.5"/>
<circle cx="102.5" cy="290.5" r="0.5" fill="white" fill-opacity="0.6"/>
<circle cx="152.5" cy="237.5" r="0.5" fill="white" fill-opacity="0.3"/>
<circle cx="289.5" cy="5.5" r="0.5" fill="white" fill-opacity="0.3"/>
<circle cx="181.5" cy="300.5" r="0.5" fill="white" fill-opacity="0.5"/>
<circle cx="173.5" cy="170.5" r="0.5" fill="white" fill-opacity="0.4"/>
<circle cx="98.5" cy="96.5" r="0.5" fill="white" fill-opacity="0.4"/>
<circle cx="317.5" cy="34.5" r="0.5" fill="white" fill-opacity="0.4"/>
<circle cx="768.5" cy="29.5" r="0.5" fill="white" fill-opacity="0.3"/>
<circle cx="677.5" cy="32.5" r="0.5" fill="white" fill-opacity="0.4"/>
<circle cx="200.5" cy="47.5" r="0.5" fill="white" fill-opacity="0.5"/>
<circle cx="313.5" cy="351.5" r="0.5" fill="white" fill-opacity="0.6"/>
<circle cx="552.5" cy="178.5" r="0.5" fill="white" fill-opacity="0.3"/>
<circle cx="138.5" cy="94.5" r="0.5" fill="white" fill-opacity="0.3"/>
<circle cx="351.5" cy="230.5" r="0.5" fill="white" fill-opacity="0.3"/>
<circle cx="297.5" cy="123.5" r="0.5" fill="white" fill-opacity="0.4"/>
<circle cx="484.5" cy="302.5" r="0.5" fill="white" fill-opacity="0.5"/>
<circle cx="157.5" cy="263.5" r="0.5" fill="white" fill-opacity="0.4"/>
<circle cx="535.5" cy="69.5" r="0.5" fill="white" fill-opacity="0.4"/>
<circle cx="296.5" cy="305.5" r="0.5" fill="white" fill-opacity="0.3"/>
<circle cx="640.5" cy="318.5" r="0.5" fill="white" fill-opacity="0.4"/>
<circle cx="651.5" cy="355.5" r="0.5" fill="white" fill-opacity="0.3"/>
<circle cx="331.5" cy="221.5" r="0.5" fill="white" fill-opacity="0.3"/>
<circle cx="536.5" cy="208.5" r="0.5" fill="white" fill-opacity="0.5"/>
<circle cx="214.5" cy="97.5" r="0.5" fill="white" fill-opacity="0.4"/>
<circle cx="583.5" cy="131.5" r="0.5" fill="white" fill-opacity="0.4"/>
<circle cx="38.5" cy="58.5" r="0.5" fill="white" fill-opacity="0.5"/>
<circle cx="334.5" cy="337.5" r="0.5" fill="white" fill-opacity="0.4"/>
<circle cx="320.5" cy="245.5" r="0.5" fill="white" fill-opacity="0.5"/>
<circle cx="134.5" cy="77.5" r="0.5" fill="white" fill-opacity="0.6"/>
<circle cx="127.5" cy="179.5" r="0.5" fill="white" fill-opacity="0.4"/>
<circle cx="60.5" cy="341.5" r="0.5" fill="white" fill-opacity="0.5"/>
<circle cx="555.5" cy="354.5" r="0.5" fill="white" fill-opacity="0.4"/>
<circle cx="272.5" cy="312.5" r="0.5" fill="white" fill-opacity="0.3"/>
<circle cx="669.5" cy="266.5" r="0.5" fill="white" fill-opacity="0.3"/>
<circle cx="193.5" cy="259.5" r="0.5" fill="white" fill-opacity="0.4"/>
<circle cx="384.5" cy="350.5" r="0.5" fill="white" fill-opacity="0.5"/>
<circle cx="372.5" cy="187.5" r="0.5" fill="white" fill-opacity="0.5"/>
<g filter="url(#filter4_d_743_42966)">
<circle cx="764.5" cy="245.5" r="0.5" fill="white" fill-opacity="0.6" shape-rendering="crispEdges"/>
</g>
<circle cx="106.5" cy="224.5" r="0.5" fill="white" fill-opacity="0.4"/>
<circle cx="21.5" cy="234.5" r="0.5" fill="white" fill-opacity="0.4"/>
<circle cx="295.5" cy="1.5" r="0.5" fill="white" fill-opacity="0.4"/>
<circle cx="268.5" cy="17.5" r="0.5" fill="white" fill-opacity="0.4"/>
<circle cx="82.5" cy="97.5" r="0.5" fill="white" fill-opacity="0.3"/>
<circle cx="5.5" cy="20.5" r="0.5" fill="white" fill-opacity="0.4"/>
<circle cx="64.5" cy="329.5" r="0.5" fill="white" fill-opacity="0.4"/>
<circle cx="122.5" cy="262.5" r="0.5" fill="white" fill-opacity="0.4"/>
<circle cx="422.5" cy="262.5" r="0.5" fill="white" fill-opacity="0.5"/>
<circle cx="167.5" cy="119.5" r="0.5" fill="white" fill-opacity="0.4"/>
<circle cx="501.5" cy="104.5" r="0.5" fill="white" fill-opacity="0.5"/>
<circle cx="336.5" cy="241.5" r="0.5" fill="white" fill-opacity="0.6"/>
<circle cx="416.5" cy="260.5" r="0.5" fill="white" fill-opacity="0.4"/>
<circle cx="167.5" cy="270.5" r="0.5" fill="white" fill-opacity="0.4"/>
<circle cx="349.5" cy="355.5" r="0.5" fill="white" fill-opacity="0.4"/>
<circle cx="606.5" cy="76.5" r="0.5" fill="white" fill-opacity="0.5"/>
<circle cx="513.5" cy="8.5" r="0.5" fill="white" fill-opacity="0.5"/>
<circle cx="321.5" cy="183.5" r="0.5" fill="white" fill-opacity="0.5"/>
<circle cx="487.5" cy="76.5" r="0.5" fill="white" fill-opacity="0.6"/>
<circle cx="271.5" cy="21.5" r="0.5" fill="white" fill-opacity="0.6"/>
<circle cx="38.5" cy="223.5" r="0.5" fill="white" fill-opacity="0.4"/>
<circle cx="674.5" cy="239.5" r="0.5" fill="white" fill-opacity="0.5"/>
<circle cx="142.5" cy="125.5" r="0.5" fill="white" fill-opacity="0.4"/>
<circle cx="755.5" cy="160.5" r="0.5" fill="white" fill-opacity="0.4"/>
<circle cx="28.5" cy="116.5" r="0.5" fill="white" fill-opacity="0.5"/>
<circle cx="306.5" cy="210.5" r="0.5" fill="white" fill-opacity="0.4"/>
<circle cx="267.5" cy="2.5" r="0.5" fill="white" fill-opacity="0.3"/>
<circle cx="404.5" cy="116.5" r="0.5" fill="white" fill-opacity="0.5"/>
<circle cx="490.5" cy="258.5" r="0.5" fill="white" fill-opacity="0.5"/>
<circle cx="518.5" cy="211.5" r="0.5" fill="white" fill-opacity="0.6"/>
<circle cx="642.5" cy="249.5" r="0.5" fill="white" fill-opacity="0.4"/>
<circle cx="138.5" cy="248.5" r="0.5" fill="white" fill-opacity="0.3"/>
<circle cx="178.5" cy="92.5" r="0.5" fill="white" fill-opacity="0.4"/>
<circle cx="486.5" cy="212.5" r="0.5" fill="white" fill-opacity="0.4"/>
<circle cx="554.5" cy="319.5" r="0.5" fill="white" fill-opacity="0.6"/>
<circle cx="274.5" cy="11.5" r="0.5" fill="white" fill-opacity="0.3"/>
<circle cx="643.5" cy="319.5" r="0.5" fill="white" fill-opacity="0.6"/>
<circle cx="336.5" cy="234.5" r="0.5" fill="white" fill-opacity="0.5"/>
<circle cx="655.5" cy="250.5" r="0.5" fill="white" fill-opacity="0.4"/>
<circle cx="775.5" cy="156.5" r="0.5" fill="white" fill-opacity="0.3"/>
<circle cx="148.5" cy="230.5" r="0.5" fill="white" fill-opacity="0.6"/>
<circle cx="152.5" cy="109.5" r="0.5" fill="white" fill-opacity="0.3"/>
<circle cx="349.5" cy="290.5" r="0.5" fill="white" fill-opacity="0.4"/>
<circle cx="639.5" cy="187.5" r="0.5" fill="white" fill-opacity="0.4"/>
<circle cx="178.5" cy="142.5" r="0.5" fill="white" fill-opacity="0.5"/>
<circle cx="0.5" cy="358.5" r="0.5" fill="white" fill-opacity="0.4"/>
<circle cx="544.5" cy="203.5" r="0.5" fill="white" fill-opacity="0.3"/>
<circle cx="122.5" cy="352.5" r="0.5" fill="white" fill-opacity="0.5"/>
<circle cx="225.5" cy="168.5" r="0.5" fill="white" fill-opacity="0.4"/>
<circle cx="331.5" cy="141.5" r="0.5" fill="white" fill-opacity="0.3"/>
<circle cx="501.5" cy="204.5" r="0.5" fill="white" fill-opacity="0.3"/>
<circle cx="554.5" cy="165.5" r="0.5" fill="white" fill-opacity="0.5"/>
<circle cx="471.5" cy="10.5" r="0.5" fill="white" fill-opacity="0.5"/>
</g>
<defs>
<filter id="filter0_d_743_42966" x="687" y="41" width="21" height="21" filterUnits="userSpaceOnUse" color-interpolation-filters="sRGB">
<feFlood flood-opacity="0" result="BackgroundImageFix"/>
<feColorMatrix in="SourceAlpha" type="matrix" values="0 0 0 0 0 0 0 0 0 0 0 0 0 0 0 0 0 0 127 0" result="hardAlpha"/>
<feMorphology radius="2" operator="dilate" in="SourceAlpha" result="effect1_dropShadow_743_42966"/>
<feOffset/>
<feGaussianBlur stdDeviation="4"/>
<feComposite in2="hardAlpha" operator="out"/>
<feColorMatrix type="matrix" values="0 0 0 0 1 0 0 0 0 1 0 0 0 0 1 0 0 0 0.3 0"/>
<feBlend mode="normal" in2="BackgroundImageFix" result="effect1_dropShadow_743_42966"/>
<feBlend mode="normal" in="SourceGraphic" in2="effect1_dropShadow_743_42966" result="shape"/>
</filter>
<filter id="filter1_d_743_42966" x="31" y="264" width="21" height="21" filterUnits="userSpaceOnUse" color-interpolation-filters="sRGB">
<feFlood flood-opacity="0" result="BackgroundImageFix"/>
<feColorMatrix in="SourceAlpha" type="matrix" values="0 0 0 0 0 0 0 0 0 0 0 0 0 0 0 0 0 0 127 0" result="hardAlpha"/>
<feMorphology radius="2" operator="dilate" in="SourceAlpha" result="effect1_dropShadow_743_42966"/>
<feOffset/>
<feGaussianBlur stdDeviation="4"/>
<feComposite in2="hardAlpha" operator="out"/>
<feColorMatrix type="matrix" values="0 0 0 0 1 0 0 0 0 1 0 0 0 0 1 0 0 0 0.3 0"/>
<feBlend mode="normal" in2="BackgroundImageFix" result="effect1_dropShadow_743_42966"/>
<feBlend mode="normal" in="SourceGraphic" in2="effect1_dropShadow_743_42966" result="shape"/>
</filter>
<filter id="filter2_d_743_42966" x="6" y="10" width="21" height="21" filterUnits="userSpaceOnUse" color-interpolation-filters="sRGB">
<feFlood flood-opacity="0" result="BackgroundImageFix"/>
<feColorMatrix in="SourceAlpha" type="matrix" values="0 0 0 0 0 0 0 0 0 0 0 0 0 0 0 0 0 0 127 0" result="hardAlpha"/>
<feMorphology radius="2" operator="dilate" in="SourceAlpha" result="effect1_dropShadow_743_42966"/>
<feOffset/>
<feGaussianBlur stdDeviation="4"/>
<feComposite in2="hardAlpha" operator="out"/>
<feColorMatrix type="matrix" values="0 0 0 0 1 0 0 0 0 1 0 0 0 0 1 0 0 0 0.3 0"/>
<feBlend mode="normal" in2="BackgroundImageFix" result="effect1_dropShadow_743_42966"/>
<feBlend mode="normal" in="SourceGraphic" in2="effect1_dropShadow_743_42966" result="shape"/>
</filter>
<filter id="filter3_d_743_42966" x="471" y="-10" width="21" height="21" filterUnits="userSpaceOnUse" color-interpolation-filters="sRGB">
<feFlood flood-opacity="0" result="BackgroundImageFix"/>
<feColorMatrix in="SourceAlpha" type="matrix" values="0 0 0 0 0 0 0 0 0 0 0 0 0 0 0 0 0 0 127 0" result="hardAlpha"/>
<feMorphology radius="2" operator="dilate" in="SourceAlpha" result="effect1_dropShadow_743_42966"/>
<feOffset/>
<feGaussianBlur stdDeviation="4"/>
<feComposite in2="hardAlpha" operator="out"/>
<feColorMatrix type="matrix" values="0 0 0 0 1 0 0 0 0 1 0 0 0 0 1 0 0 0 0.3 0"/>
<feBlend mode="normal" in2="BackgroundImageFix" result="effect1_dropShadow_743_42966"/>
<feBlend mode="normal" in="SourceGraphic" in2="effect1_dropShadow_743_42966" result="shape"/>
</filter>
<filter id="filter4_d_743_42966" x="754" y="235" width="21" height="21" filterUnits="userSpaceOnUse" color-interpolation-filters="sRGB">
<feFlood flood-opacity="0" result="BackgroundImageFix"/>
<feColorMatrix in="SourceAlpha" type="matrix" values="0 0 0 0 0 0 0 0 0 0 0 0 0 0 0 0 0 0 127 0" result="hardAlpha"/>
<feMorphology radius="2" operator="dilate" in="SourceAlpha" result="effect1_dropShadow_743_42966"/>
<feOffset/>
<feGaussianBlur stdDeviation="4"/>
<feComposite in2="hardAlpha" operator="out"/>
<feColorMatrix type="matrix" values="0 0 0 0 1 0 0 0 0 1 0 0 0 0 1 0 0 0 0.3 0"/>
<feBlend mode="normal" in2="BackgroundImageFix" result="effect1_dropShadow_743_42966"/>
<feBlend mode="normal" in="SourceGraphic" in2="effect1_dropShadow_743_42966" result="shape"/>
</filter>
<clipPath id="clip0_743_42966">
<rect width="776" height="397" fill="white"/>
</clipPath>
</defs>
</svg>
