<svg width="1280" height="246" viewBox="0 0 1280 246" fill="none" xmlns="http://www.w3.org/2000/svg">
<path opacity="0.05" fill-rule="evenodd" clip-rule="evenodd" d="M1182.76 146.576C1182.76 181.822 1205.91 200.138 1240.8 200.138C1249.68 200.138 1256.97 199.028 1265.85 196.808V166.003L1252.85 166.28C1232.87 166.28 1226.52 157.677 1226.52 141.303V97.455H1270.29V67.4826H1226.52V23.0791H1182.76V67.4826H1155.48V97.455H1182.76V146.576ZM1180.8 99.1649V146.576C1180.8 164.525 1186.7 178.393 1197.3 187.776C1207.9 197.16 1222.96 201.848 1240.8 201.848C1249.9 201.848 1257.38 200.705 1266.39 198.452L1267.81 198.098V164.251L1252.85 164.571C1252.84 164.571 1252.83 164.571 1252.83 164.571C1243.14 164.567 1237.24 162.481 1233.68 158.824C1230.06 155.099 1228.48 149.368 1228.48 141.303V99.1649H1272.25V65.7727H1228.48V21.3691H1180.8V65.7727H1153.52V99.1649H1180.8Z" fill="url(#paint0_linear_716_22252)" fill-opacity="0.95"/>
<path opacity="0.05" fill-rule="evenodd" clip-rule="evenodd" d="M1032.87 160.775C1036.37 184.043 1060.77 200.971 1095.45 200.971C1125.58 200.971 1152.86 185.985 1152.86 161.84C1152.86 130.546 1122.86 122.777 1100.45 116.973C1087.08 113.513 1076.42 110.75 1076.42 104.116C1076.42 98.5651 1082.13 93.8472 1091.64 93.8472C1101.48 93.8472 1107.82 98.5651 1109.4 104.948H1150C1149.95 104.373 1149.89 103.803 1149.82 103.238C1146.75 78.9941 1124.5 64.1587 1091.64 64.4299C1058.34 64.7074 1036.46 81.3587 1036.46 104.116C1036.46 136.079 1065.59 143.303 1087.58 148.756C1100.92 152.062 1111.62 154.717 1111.62 161.84C1111.62 167.946 1104.96 171.553 1095.45 171.553C1085.3 171.553 1076.1 167.946 1073.88 159.065H1032.65C1032.71 159.639 1032.78 160.209 1032.87 160.775ZM1030.51 157.355H1075.45L1075.79 158.7C1077.72 166.434 1085.72 169.844 1095.45 169.844C1099.96 169.844 1103.59 168.985 1106.02 167.564C1108.39 166.182 1109.67 164.263 1109.67 161.84C1109.67 160.069 1108.83 158.644 1107.11 157.337C1105.33 155.979 1102.66 154.804 1099.2 153.683C1095.76 152.568 1091.73 151.562 1087.31 150.465L1087.03 150.396C1082.71 149.326 1078.06 148.173 1073.4 146.771C1063.91 143.913 1054.17 139.963 1046.8 133.333C1039.37 126.646 1034.5 117.362 1034.5 104.116C1034.5 92.2209 1040.24 81.8916 1050.31 74.5307C1060.35 67.1874 1074.62 62.8618 1091.62 62.72C1108.77 62.5785 1123.27 66.4706 1133.81 73.7742C1144.38 81.0969 1150.8 91.7468 1151.95 104.817L1152.11 106.658H1107.83L1107.5 105.311C1106.13 99.812 1100.68 95.5572 1091.64 95.5572C1082.82 95.5572 1078.37 99.8143 1078.37 104.116C1078.37 105.701 1079.18 107.042 1080.95 108.333C1082.79 109.668 1085.52 110.849 1089.05 112.001C1092.52 113.138 1096.59 114.192 1101.05 115.345L1101.16 115.374C1105.63 116.533 1110.46 117.785 1115.29 119.295C1124.95 122.309 1134.83 126.404 1142.31 133.044C1149.84 139.74 1154.81 148.918 1154.81 161.84C1154.81 174.543 1147.61 184.807 1136.6 191.84C1125.63 198.852 1110.86 202.681 1095.45 202.681C1059.2 202.681 1033.36 184.474 1030.7 159.222L1030.51 157.355Z" fill="url(#paint1_linear_716_22252)" fill-opacity="0.95"/>
<path opacity="0.05" fill-rule="evenodd" clip-rule="evenodd" d="M968.774 199.628V65.7727H1016.45V199.628H968.774ZM992.613 49.4885C976.734 49.4885 963.382 38.8237 963.382 25.0218C963.382 10.9819 976.687 0 992.613 0C1008.54 0 1021.84 10.9819 1021.84 25.0218C1021.84 38.8237 1008.49 49.4885 992.613 49.4885ZM970.728 197.918H1014.5V67.4827H970.728V197.918ZM965.336 25.0218C965.336 37.7878 977.706 47.7786 992.613 47.7786C1007.52 47.7786 1019.89 37.7878 1019.89 25.0218C1019.89 11.9782 1007.52 1.70992 992.613 1.70992C977.706 1.70992 965.336 11.9782 965.336 25.0218Z" fill="url(#paint2_linear_716_22252)" fill-opacity="0.95"/>
<path opacity="0.05" fill-rule="evenodd" clip-rule="evenodd" d="M897.39 197.918H941.159V8.64791H897.39V197.918ZM895.436 199.628V6.93799H943.113V199.628H895.436Z" fill="url(#paint3_linear_716_22252)" fill-opacity="0.95"/>
<path opacity="0.05" fill-rule="evenodd" clip-rule="evenodd" d="M722.891 132.701C722.891 171.831 753.656 200.971 800.914 200.971C829.849 200.971 860.614 189.221 870.758 160.22C870.955 159.657 871.144 159.087 871.325 158.51H831.679C825.653 166.558 816.772 170.166 799.963 170.166C782.208 170.166 769.18 162.41 764.016 146.899C763.83 146.339 763.654 145.769 763.488 145.189H875.449L875.766 132.701C875.766 93.8475 844.683 64.4301 799.645 64.4301C754.607 64.4301 722.891 93.8475 722.891 132.701ZM766.055 146.899H877.36L877.72 132.72V132.701C877.72 92.9692 845.837 62.7202 799.645 62.7202C753.476 62.7202 720.937 92.9499 720.937 132.701C720.937 152.663 728.79 170.176 742.783 182.705C756.782 195.24 776.808 202.681 800.914 202.681C830.939 202.681 863.379 190.215 873.21 158.964L873.89 156.8H830.623L830.045 157.573C827.22 161.346 823.78 164.023 819.093 165.785C814.357 167.566 808.229 168.456 799.963 168.456C791.104 168.456 783.617 166.455 777.798 162.563C772.51 159.027 768.467 153.841 766.055 146.899ZM763.171 119.657C763.336 119.079 763.516 118.509 763.71 117.947C768.37 104.464 781.377 95.5126 799.645 95.5126C816.987 95.5126 831.702 104.705 835.392 117.947C835.549 118.51 835.686 119.08 835.803 119.657H763.171ZM765.756 117.947H833.376C829.74 105.8 816.056 97.2225 799.645 97.2225C782.462 97.2225 770.309 105.465 765.756 117.947Z" fill="url(#paint4_linear_716_22252)" fill-opacity="0.95"/>
<path opacity="0.05" fill-rule="evenodd" clip-rule="evenodd" d="M657.482 197.918H701.252V8.64791H657.482V197.918ZM655.528 199.628V6.93799H703.206V199.628H655.528Z" fill="url(#paint5_linear_716_22252)" fill-opacity="0.95"/>
<path opacity="0.05" fill-rule="evenodd" clip-rule="evenodd" d="M523.753 180.863C532.915 193.523 548.06 200.971 568.422 200.971C601.725 200.971 635.979 178.214 635.979 132.701C635.979 87.187 601.725 64.4301 568.422 64.4301C547.13 64.4301 531.509 72.8659 522.363 86.6877C521.836 87.484 521.331 88.2982 520.847 89.1296L516.724 67.4829H478.029V252.868H521.799V177.937C522.416 178.941 523.068 179.916 523.753 180.863ZM523.753 183.928C533.412 195.792 548.592 202.681 568.422 202.681C602.844 202.681 637.933 179.124 637.933 132.701C637.933 86.2775 602.844 62.7202 568.422 62.7202C547.33 62.7202 531.506 70.7799 521.87 84.0996L518.379 65.773H476.075V254.578H523.753V183.928ZM592.844 132.701C592.844 154.347 577.303 167.668 556.053 167.668C539.56 167.668 521.481 157.955 521.481 132.701C521.481 109.111 540.194 97.7328 556.053 97.7328C577.62 97.7328 592.844 111.886 592.844 132.701ZM580.999 157.125C587.141 151.458 590.89 143.162 590.89 132.701C590.89 122.66 587.223 114.353 581.103 108.574C574.992 102.803 566.325 99.4427 556.053 99.4427C541.263 99.4427 523.436 110.065 523.436 132.701C523.436 144.955 527.809 153.222 533.943 158.427C540.103 163.655 548.229 165.958 556.053 165.958C566.195 165.958 574.862 162.788 580.999 157.125Z" fill="url(#paint6_linear_716_22252)" fill-opacity="0.95"/>
<path opacity="0.05" fill-rule="evenodd" clip-rule="evenodd" d="M280.845 64.4301C236.758 64.4301 214.239 87.4645 214.239 124.93V197.918H258.009V127.705C258.009 109.389 266.255 97.7328 284.016 97.7328C301.778 97.7328 310.024 109.389 310.024 127.705V197.918H353.793V127.705C353.793 109.389 362.04 97.7328 379.801 97.7328C397.563 97.7328 405.809 109.389 405.809 127.705V197.918H449.578V124.93C449.578 87.4645 427.059 64.4301 382.973 64.4301C354.751 64.4301 339.594 78.1492 333.059 87.1133C332.894 87.3399 332.734 87.5633 332.58 87.7835C332.459 87.9568 332.341 88.128 332.226 88.2971H331.592C331.477 88.128 331.359 87.9568 331.238 87.7835C331.083 87.5634 330.924 87.3399 330.758 87.1133C324.223 78.1492 309.067 64.4301 280.845 64.4301ZM331.909 85.5248C324.872 76.2298 309.236 62.7202 280.845 62.7202C258.407 62.7202 241.181 68.5916 229.581 79.4636C218.002 90.3166 212.285 105.914 212.285 124.93V199.628H259.963V127.705C259.963 118.73 261.991 111.646 265.938 106.849C269.812 102.142 275.691 99.4427 284.016 99.4427C292.342 99.4427 298.221 102.142 302.095 106.849C306.042 111.646 308.07 118.73 308.07 127.705V199.628H355.748V127.705C355.748 118.73 357.776 111.646 361.723 106.849C365.596 102.142 371.476 99.4427 379.801 99.4427C388.126 99.4427 394.006 102.142 397.88 106.849C401.827 111.646 403.855 118.73 403.855 127.705V199.628H451.532V124.93C451.532 105.914 445.816 90.3166 434.236 79.4636C422.637 68.5916 405.411 62.7202 382.973 62.7202C354.581 62.7202 338.946 76.2298 331.909 85.5248Z" fill="url(#paint7_linear_716_22252)" fill-opacity="0.95"/>
<path opacity="0.05" fill-rule="evenodd" clip-rule="evenodd" d="M145.288 199.628V65.7727H192.966V199.628H145.288ZM169.127 49.4885C153.249 49.4885 139.896 38.8237 139.896 25.0218C139.896 10.9819 153.201 0 169.127 0C185.053 0 198.358 10.9819 198.358 25.0218C198.358 38.8237 185.006 49.4885 169.127 49.4885ZM147.243 197.918H191.012V67.4827H147.243V197.918ZM141.851 25.0218C141.851 37.7878 154.22 47.7786 169.127 47.7786C184.034 47.7786 196.404 37.7878 196.404 25.0218C196.404 11.9782 184.034 1.70992 169.127 1.70992C154.22 1.70992 141.851 11.9782 141.851 25.0218Z" fill="url(#paint8_linear_716_22252)" fill-opacity="0.95"/>
<path opacity="0.05" fill-rule="evenodd" clip-rule="evenodd" d="M10.3604 160.775C13.8611 184.043 38.2626 200.971 72.9414 200.971C103.072 200.971 130.349 185.985 130.349 161.84C130.349 130.546 100.351 122.777 77.9404 116.973C64.5772 113.513 53.9114 110.75 53.9114 104.116C53.9114 98.5651 59.6204 93.8472 69.1354 93.8472C78.9676 93.8472 85.311 98.5651 86.8968 104.948H127.494C127.444 104.373 127.383 103.803 127.311 103.238C124.243 78.9941 101.99 64.1587 69.1354 64.4299C35.8328 64.7074 13.9482 81.3587 13.9482 104.116C13.9482 136.079 43.0821 143.303 65.0748 148.756C78.4083 152.062 89.117 154.717 89.117 161.84C89.117 167.946 82.4565 171.553 72.9414 171.553C62.7921 171.553 53.5942 167.946 51.374 159.065H10.1421C10.2024 159.639 10.2752 160.209 10.3604 160.775ZM8 157.355H52.9469L53.2831 158.7C55.2166 166.434 63.2076 169.844 72.9414 169.844C77.4499 169.844 81.0774 168.985 83.5134 167.564C85.8821 166.182 87.1628 164.263 87.1628 161.84C87.1628 160.069 86.3203 158.644 84.6044 157.337C82.8195 155.979 80.1506 154.804 76.6928 153.683C73.2552 152.568 69.2228 151.562 64.8003 150.465L64.5229 150.396C60.2056 149.326 55.5548 148.173 50.8971 146.771C41.3984 143.913 31.6576 139.963 24.292 133.333C16.8642 126.646 11.994 117.362 11.994 104.116C11.994 92.2209 17.7304 81.8916 27.8004 74.5307C37.8465 67.1874 52.1073 62.8618 69.1168 62.72C86.2643 62.5785 100.766 66.4706 111.303 73.7742C121.868 81.0969 128.294 91.7468 129.443 104.817L129.605 106.658H85.3218L84.9872 105.311C83.6209 99.812 78.1675 95.5572 69.1354 95.5572C60.3147 95.5572 55.8655 99.8143 55.8655 104.116C55.8655 105.701 56.6769 107.042 58.4469 108.333C60.2773 109.668 63.011 110.849 66.5384 112.001C70.0153 113.138 74.0847 114.192 78.5395 115.345L78.6513 115.374C83.1241 116.533 87.9514 117.785 92.7869 119.295C102.439 122.309 112.323 126.404 119.798 133.044C127.336 139.74 132.303 148.918 132.303 161.84C132.303 174.543 125.102 184.807 114.097 191.84C103.125 198.852 88.3527 202.681 72.9414 202.681C36.6943 202.681 10.85 184.474 8.19615 159.222L8 157.355Z" fill="url(#paint9_linear_716_22252)" fill-opacity="0.95"/>
<defs>
<linearGradient id="paint0_linear_716_22252" x1="638.724" y1="-15.082" x2="638.724" y2="222.918" gradientUnits="userSpaceOnUse">
<stop stop-color="#F8F8F8"/>
<stop offset="1" stop-color="#F8F8F8" stop-opacity="0"/>
</linearGradient>
<linearGradient id="paint1_linear_716_22252" x1="638.724" y1="-15.082" x2="638.724" y2="222.918" gradientUnits="userSpaceOnUse">
<stop stop-color="#F8F8F8"/>
<stop offset="1" stop-color="#F8F8F8" stop-opacity="0"/>
</linearGradient>
<linearGradient id="paint2_linear_716_22252" x1="638.724" y1="-15.0819" x2="638.724" y2="222.918" gradientUnits="userSpaceOnUse">
<stop stop-color="#F8F8F8"/>
<stop offset="1" stop-color="#F8F8F8" stop-opacity="0"/>
</linearGradient>
<linearGradient id="paint3_linear_716_22252" x1="638.724" y1="-15.082" x2="638.724" y2="222.918" gradientUnits="userSpaceOnUse">
<stop stop-color="#F8F8F8"/>
<stop offset="1" stop-color="#F8F8F8" stop-opacity="0"/>
</linearGradient>
<linearGradient id="paint4_linear_716_22252" x1="638.724" y1="-15.0817" x2="638.724" y2="222.918" gradientUnits="userSpaceOnUse">
<stop stop-color="#F8F8F8"/>
<stop offset="1" stop-color="#F8F8F8" stop-opacity="0"/>
</linearGradient>
<linearGradient id="paint5_linear_716_22252" x1="638.724" y1="-15.082" x2="638.724" y2="222.918" gradientUnits="userSpaceOnUse">
<stop stop-color="#F8F8F8"/>
<stop offset="1" stop-color="#F8F8F8" stop-opacity="0"/>
</linearGradient>
<linearGradient id="paint6_linear_716_22252" x1="638.724" y1="-15.0817" x2="638.724" y2="222.918" gradientUnits="userSpaceOnUse">
<stop stop-color="#F8F8F8"/>
<stop offset="1" stop-color="#F8F8F8" stop-opacity="0"/>
</linearGradient>
<linearGradient id="paint7_linear_716_22252" x1="638.724" y1="-15.0817" x2="638.724" y2="222.918" gradientUnits="userSpaceOnUse">
<stop stop-color="#F8F8F8"/>
<stop offset="1" stop-color="#F8F8F8" stop-opacity="0"/>
</linearGradient>
<linearGradient id="paint8_linear_716_22252" x1="638.724" y1="-15.0819" x2="638.724" y2="222.918" gradientUnits="userSpaceOnUse">
<stop stop-color="#F8F8F8"/>
<stop offset="1" stop-color="#F8F8F8" stop-opacity="0"/>
</linearGradient>
<linearGradient id="paint9_linear_716_22252" x1="638.724" y1="-15.082" x2="638.724" y2="222.918" gradientUnits="userSpaceOnUse">
<stop stop-color="#F8F8F8"/>
<stop offset="1" stop-color="#F8F8F8" stop-opacity="0"/>
</linearGradient>
</defs>
</svg>
