<svg width="1280" height="246" viewBox="0 0 1280 246" fill="none" xmlns="http://www.w3.org/2000/svg">
<mask id="path-1-outside-1_9019_11028" maskUnits="userSpaceOnUse" x="157" y="5" width="962" height="239" fill="black">
<rect fill="white" x="157" y="5" width="962" height="239"/>
<path d="M218.393 190C202.059 190 188.559 186.167 177.893 178.5C167.393 170.833 161.476 160.583 160.143 147.75H193.393C194.559 152.917 197.476 157.083 202.143 160.25C206.976 163.417 212.809 165 219.643 165C226.809 165 232.226 163.667 235.893 161C239.726 158.333 241.643 155.083 241.643 151.25C241.643 148.083 240.309 145.583 237.643 143.75C234.976 141.917 230.226 140.583 223.393 139.75C220.893 139.417 217.643 138.917 213.643 138.25C209.643 137.583 206.393 137 203.893 136.5C197.059 135.167 190.809 133 185.143 130C179.476 127 174.893 123 171.393 118C168.059 113 166.393 106.75 166.393 99.25C166.393 88.25 170.476 79 178.643 71.5C186.976 63.8333 199.059 60 214.893 60C230.726 60 243.309 63.5 252.643 70.5C261.976 77.5 267.226 87.3333 268.393 100H236.893C236.393 95 233.976 91.25 229.643 88.75C225.476 86.25 220.643 85 215.143 85C208.643 85 203.643 86.25 200.143 88.75C196.643 91.0833 194.893 94 194.893 97.5C194.893 103.5 200.393 107.5 211.393 109.5C213.059 109.667 215.143 110 217.643 110.5C220.309 110.833 223.059 111.25 225.893 111.75C228.726 112.083 230.976 112.417 232.643 112.75C237.476 113.417 242.226 114.5 246.893 116C251.559 117.5 255.726 119.583 259.393 122.25C263.226 124.75 266.226 128.167 268.393 132.5C270.726 136.833 271.893 142.167 271.893 148.5C271.893 156.667 269.809 163.917 265.643 170.25C261.476 176.417 255.393 181.25 247.393 184.75C239.559 188.25 229.893 190 218.393 190ZM356.451 190C343.785 190 332.535 187.25 322.701 181.75C313.035 176.083 305.368 168.417 299.701 158.75C294.201 148.917 291.451 137.667 291.451 125C291.451 112.333 294.201 101.167 299.701 91.5C305.368 81.6667 313.035 74 322.701 68.5C332.535 62.8333 343.785 60 356.451 60C372.285 60 385.618 64.1667 396.451 72.5C407.285 80.6667 414.201 92 417.201 106.5H382.951C381.451 100.833 378.285 96.3333 373.451 93C368.618 89.5 362.868 87.75 356.201 87.75C350.535 87.75 345.285 89.25 340.451 92.25C335.618 95.25 331.785 99.5 328.951 105C326.118 110.5 324.701 117.167 324.701 125C324.701 132.667 326.118 139.333 328.951 145C331.785 150.667 335.618 155 340.451 158C345.285 160.833 350.535 162.25 356.201 162.25C362.868 162.25 368.618 160.667 373.451 157.5C378.285 154.167 381.451 149.5 382.951 143.5H417.201C414.368 157.5 407.451 168.75 396.451 177.25C385.618 185.75 372.285 190 356.451 190ZM479.752 190C470.419 190 462.335 188.333 455.502 185C448.835 181.667 443.752 177.167 440.252 171.5C436.752 165.833 435.002 159.583 435.002 152.75C435.002 139.75 439.669 129.75 449.002 122.75C458.335 115.583 470.585 112 485.752 112C492.919 112 499.085 112.5 504.252 113.5C509.419 114.5 513.669 115.583 517.002 116.75V110.75C517.002 102.083 514.502 95.75 509.502 91.75C504.669 87.75 498.335 85.75 490.502 85.75C485.002 85.75 480.085 86.9167 475.752 89.25C471.419 91.4167 468.669 95.3333 467.502 101H436.752C437.752 92.1667 440.752 84.75 445.752 78.75C450.752 72.5833 457.085 67.9167 464.752 64.75C472.585 61.5833 481.169 60 490.502 60C509.002 60 523.419 64.4167 533.752 73.25C544.252 82.0833 549.502 94.5833 549.502 110.75V138.75C549.502 145.083 549.835 149.75 550.502 152.75C551.335 155.75 552.585 157.667 554.252 158.5C555.919 159.333 558.169 159.75 561.002 159.75H562.002V187H555.002C546.169 187 538.835 185.833 533.002 183.5C527.169 181.167 522.919 176.583 520.252 169.75C516.085 175.583 510.585 180.417 503.752 184.25C496.919 188.083 488.919 190 479.752 190ZM487.002 165.25C492.335 165.25 496.835 164.083 500.502 161.75C504.335 159.25 507.502 155.917 510.002 151.75C512.502 147.417 514.252 142.75 515.252 137.75C511.752 136.75 507.669 135.833 503.002 135C498.502 134 493.919 133.5 489.252 133.5C482.752 133.5 477.502 135 473.502 138C469.669 140.833 467.752 144.833 467.752 150C467.752 154.5 469.419 158.167 472.752 161C476.252 163.833 481.002 165.25 487.002 165.25ZM583.424 187V63H615.924V81.75C619.924 75.0833 625.424 69.8333 632.424 66C639.424 62 647.59 60 656.924 60C672.424 60 684.341 64.9167 692.674 74.75C701.007 84.4167 705.174 98.5833 705.174 117.25V187H672.674V120.25C672.674 109.583 670.507 101.5 666.174 96C662.007 90.3333 655.34 87.5 646.174 87.5C637.34 87.5 630.09 90.6667 624.424 97C618.757 103.167 615.924 111.833 615.924 123V187H583.424ZM733.258 187V6.99999H765.758V187H733.258ZM793.736 187V63H826.236V187H793.736ZM794.486 42.5V11H825.986V42.5H794.486ZM863.215 187V47C863.215 35.5 864.548 26.9167 867.215 21.25C869.882 15.4167 874.215 11.5833 880.215 9.74999C886.382 7.91666 894.465 6.99999 904.465 6.99999H919.715V34.75H910.715C904.715 34.75 900.715 35.6667 898.715 37.5C896.715 39.3333 895.715 43.1667 895.715 49V187H863.215ZM846.215 90.25V63H919.715V90.25H846.215ZM940.031 242V216.25H966.531C969.031 216.25 971.115 215.917 972.781 215.25C974.448 214.75 976.031 213.5 977.531 211.5C979.031 209.5 980.615 206.417 982.281 202.25L993.031 179L991.281 193.25L937.281 63H972.531L1007.03 149.75L1043.03 63H1077.53L1011.53 213.5C1008.86 219.667 1006.45 224.583 1004.28 228.25C1002.28 232.083 1000.28 234.917 998.281 236.75C996.281 238.75 993.865 240.083 991.031 240.75C988.365 241.583 984.865 242 980.531 242H940.031ZM1075.7 187V149H1116.2V187H1075.7Z"/>
</mask>
<path d="M177.893 178.5L176.713 180.115L176.719 180.12L176.725 180.124L177.893 178.5ZM160.143 147.75V145.75H157.924L158.153 147.957L160.143 147.75ZM193.393 147.75L195.343 147.309L194.991 145.75H193.393V147.75ZM202.143 160.25L201.02 161.905L201.033 161.914L201.047 161.923L202.143 160.25ZM235.893 161L234.75 159.358L234.733 159.37L234.716 159.383L235.893 161ZM223.393 139.75L223.128 141.732L223.139 141.734L223.15 141.735L223.393 139.75ZM213.643 138.25L213.314 140.223L213.314 140.223L213.643 138.25ZM203.893 136.5L204.285 134.539L204.276 134.537L203.893 136.5ZM185.143 130L186.078 128.232L186.078 128.232L185.143 130ZM171.393 118L169.728 119.109L169.741 119.128L169.754 119.147L171.393 118ZM178.643 71.5L179.995 72.9731L179.997 72.9719L178.643 71.5ZM252.643 70.5L251.443 72.1L251.443 72.1L252.643 70.5ZM268.393 100V102H270.585L270.384 99.8166L268.393 100ZM236.893 100L234.903 100.199L235.083 102H236.893V100ZM229.643 88.75L228.614 90.465L228.628 90.4738L228.643 90.4824L229.643 88.75ZM200.143 88.75L201.252 90.4141L201.279 90.3962L201.305 90.3775L200.143 88.75ZM211.393 109.5L211.035 111.468L211.114 111.482L211.194 111.49L211.393 109.5ZM217.643 110.5L217.25 112.461L217.322 112.475L217.395 112.485L217.643 110.5ZM225.893 111.75L225.545 113.72L225.602 113.73L225.659 113.736L225.893 111.75ZM232.643 112.75L232.25 114.711L232.31 114.723L232.369 114.731L232.643 112.75ZM246.893 116L246.281 117.904L246.281 117.904L246.893 116ZM259.393 122.25L258.216 123.867L258.257 123.897L258.3 123.925L259.393 122.25ZM268.393 132.5L266.604 133.394L266.617 133.422L266.632 133.448L268.393 132.5ZM265.643 170.25L267.3 171.37L267.307 171.36L267.313 171.349L265.643 170.25ZM247.393 184.75L246.591 182.918L246.584 182.921L246.577 182.924L247.393 184.75ZM218.393 190V188C202.375 188 189.311 184.244 179.06 176.876L177.893 178.5L176.725 180.124C187.807 188.089 201.744 192 218.393 192V190ZM177.893 178.5L179.072 176.885C169.025 169.549 163.406 159.809 162.132 147.543L160.143 147.75L158.153 147.957C159.546 161.358 165.76 172.118 176.713 180.115L177.893 178.5ZM160.143 147.75V149.75H193.393V147.75V145.75H160.143V147.75ZM193.393 147.75L191.442 148.191C192.728 153.886 195.963 158.473 201.02 161.905L202.143 160.25L203.266 158.595C198.989 155.693 196.391 151.947 195.343 147.309L193.393 147.75ZM202.143 160.25L201.047 161.923C206.261 165.339 212.492 167 219.643 167V165V163C213.126 163 207.691 161.494 203.239 158.577L202.143 160.25ZM219.643 165V167C227.004 167 232.914 165.64 237.069 162.617L235.893 161L234.716 159.383C231.538 161.694 226.614 163 219.643 163V165ZM235.893 161L237.035 162.642C241.272 159.694 243.643 155.885 243.643 151.25H241.643H239.643C239.643 154.282 238.179 156.973 234.75 159.358L235.893 161ZM241.643 151.25H243.643C243.643 147.408 241.971 144.299 238.776 142.102L237.643 143.75L236.51 145.398C238.648 146.868 239.643 148.759 239.643 151.25H241.643ZM237.643 143.75L238.776 142.102C235.68 139.974 230.505 138.603 223.635 137.765L223.393 139.75L223.15 141.735C229.947 142.564 234.272 143.86 236.51 145.398L237.643 143.75ZM223.393 139.75L223.657 137.768C221.187 137.438 217.961 136.942 213.971 136.277L213.643 138.25L213.314 140.223C217.324 140.891 220.598 141.395 223.128 141.732L223.393 139.75ZM213.643 138.25L213.971 136.277C209.982 135.612 206.755 135.033 204.285 134.539L203.893 136.5L203.5 138.461C206.03 138.967 209.303 139.554 213.314 140.223L213.643 138.25ZM203.893 136.5L204.276 134.537C197.619 133.238 191.557 131.133 186.078 128.232L185.143 130L184.207 131.768C190.061 134.867 196.5 137.095 203.51 138.463L203.893 136.5ZM185.143 130L186.078 128.232C180.677 125.373 176.34 121.58 173.031 116.853L171.393 118L169.754 119.147C173.445 124.42 178.275 128.627 184.207 131.768L185.143 130ZM171.393 118L173.057 116.891C169.991 112.292 168.393 106.453 168.393 99.25H166.393H164.393C164.393 107.047 166.127 113.708 169.728 119.109L171.393 118ZM166.393 99.25H168.393C168.393 88.8151 172.237 80.0977 179.995 72.9731L178.643 71.5L177.29 70.0269C168.714 77.9022 164.393 87.6849 164.393 99.25H166.393ZM178.643 71.5L179.997 72.9719C187.836 65.7597 199.361 62 214.893 62V60V58C198.758 58 186.116 61.907 177.288 70.0281L178.643 71.5ZM214.893 60V62C230.446 62 242.56 65.4383 251.443 72.1L252.643 70.5L253.843 68.9C244.058 61.5617 231.006 58 214.893 58V60ZM252.643 70.5L251.443 72.1C260.28 78.728 265.281 88.0227 266.401 100.183L268.393 100L270.384 99.8166C269.171 86.644 263.672 76.272 253.843 68.9L252.643 70.5ZM268.393 100V98H236.893V100V102H268.393V100ZM236.893 100L238.883 99.801C238.319 94.1636 235.536 89.8411 230.642 87.0176L229.643 88.75L228.643 90.4824C232.416 92.6589 234.466 95.8364 234.903 100.199L236.893 100ZM229.643 88.75L230.672 87.035C226.155 84.3249 220.956 83 215.143 83V85V87C220.329 87 224.797 88.1751 228.614 90.465L229.643 88.75ZM215.143 85V83C208.427 83 202.953 84.2851 198.98 87.1225L200.143 88.75L201.305 90.3775C204.333 88.2149 208.859 87 215.143 87V85ZM200.143 88.75L199.033 87.0859C195.106 89.7042 192.893 93.1899 192.893 97.5H194.893H196.893C196.893 94.8101 198.179 92.4625 201.252 90.4141L200.143 88.75ZM194.893 97.5H192.893C192.893 101.232 194.653 104.299 197.841 106.617C200.942 108.873 205.407 110.444 211.035 111.468L211.393 109.5L211.75 107.532C206.378 106.556 202.593 105.127 200.194 103.383C197.882 101.701 196.893 99.7678 196.893 97.5H194.893ZM211.393 109.5L211.194 111.49C212.771 111.648 214.785 111.968 217.25 112.461L217.643 110.5L218.035 108.539C215.5 108.032 213.347 107.685 211.592 107.51L211.393 109.5ZM217.643 110.5L217.395 112.485C220.026 112.813 222.742 113.225 225.545 113.72L225.893 111.75L226.24 109.78C223.376 109.275 220.593 108.853 217.891 108.515L217.643 110.5ZM225.893 111.75L225.659 113.736C228.469 114.067 230.659 114.393 232.25 114.711L232.643 112.75L233.035 110.789C231.292 110.44 228.982 110.1 226.126 109.764L225.893 111.75ZM232.643 112.75L232.369 114.731C237.087 115.382 241.724 116.439 246.281 117.904L246.893 116L247.505 114.096C242.728 112.561 237.865 111.451 232.916 110.769L232.643 112.75ZM246.893 116L246.281 117.904C250.761 119.344 254.735 121.335 258.216 123.867L259.393 122.25L260.569 120.633C256.717 117.831 252.357 115.656 247.505 114.096L246.893 116ZM259.393 122.25L258.3 123.925C261.819 126.22 264.586 129.359 266.604 133.394L268.393 132.5L270.181 131.606C267.866 126.974 264.633 123.28 260.485 120.575L259.393 122.25ZM268.393 132.5L266.632 133.448C268.769 137.418 269.893 142.405 269.893 148.5H271.893H273.893C273.893 141.928 272.682 136.248 270.154 131.552L268.393 132.5ZM271.893 148.5H269.893C269.893 156.308 267.907 163.169 263.972 169.151L265.643 170.25L267.313 171.349C271.712 164.664 273.893 157.026 273.893 148.5H271.893ZM265.643 170.25L263.985 169.13C260.065 174.932 254.305 179.543 246.591 182.918L247.393 184.75L248.194 186.582C256.48 182.957 262.887 177.901 267.3 171.37L265.643 170.25ZM247.393 184.75L246.577 182.924C239.072 186.277 229.702 188 218.393 188V190V192C230.083 192 240.047 190.223 248.208 186.576L247.393 184.75ZM322.701 181.75L321.69 183.475L321.707 183.486L321.725 183.496L322.701 181.75ZM299.701 158.75L297.956 159.726L297.966 159.744L297.976 159.761L299.701 158.75ZM299.701 91.5L297.968 90.5014L297.963 90.5109L299.701 91.5ZM322.701 68.5L323.69 70.2383L323.7 70.2329L322.701 68.5ZM396.451 72.5L395.232 74.0852L395.239 74.0912L395.247 74.097L396.451 72.5ZM417.201 106.5V108.5H419.657L419.16 106.095L417.201 106.5ZM382.951 106.5L381.018 107.012L381.412 108.5H382.951V106.5ZM373.451 93L372.278 94.6199L372.297 94.6334L372.316 94.6464L373.451 93ZM340.451 92.25L341.506 93.9493L341.506 93.9493L340.451 92.25ZM328.951 105L330.729 105.916L328.951 105ZM328.951 145L327.162 145.894L327.162 145.894L328.951 145ZM340.451 158L339.396 159.699L339.418 159.713L339.44 159.725L340.451 158ZM373.451 157.5L374.547 159.173L374.567 159.16L374.587 159.146L373.451 157.5ZM382.951 143.5V141.5H381.39L381.011 143.015L382.951 143.5ZM417.201 143.5L419.161 143.897L419.646 141.5H417.201V143.5ZM396.451 177.25L395.228 175.667L395.222 175.672L395.217 175.677L396.451 177.25ZM356.451 190V188C344.083 188 333.177 185.318 323.677 180.004L322.701 181.75L321.725 183.496C331.892 189.182 343.486 192 356.451 192V190ZM322.701 181.75L323.713 180.025C314.341 174.531 306.92 167.11 301.427 157.739L299.701 158.75L297.976 159.761C303.815 169.723 311.728 177.636 321.69 183.475L322.701 181.75ZM299.701 158.75L301.447 157.774C296.133 148.274 293.451 137.368 293.451 125H291.451H289.451C289.451 137.965 292.269 149.559 297.956 159.726L299.701 158.75ZM291.451 125H293.451C293.451 112.631 296.134 101.814 301.44 92.489L299.701 91.5L297.963 90.5109C292.269 100.519 289.451 112.035 289.451 125H291.451ZM299.701 91.5L301.434 92.4986C306.927 82.967 314.339 75.5586 323.69 70.2383L322.701 68.5L321.712 66.7617C311.73 72.4414 303.809 80.3663 297.968 90.5014L299.701 91.5ZM322.701 68.5L323.7 70.2329C333.195 64.7609 344.093 62 356.451 62V60V58C343.476 58 331.874 60.9058 321.703 66.7671L322.701 68.5ZM356.451 60V62C371.916 62 384.802 66.0621 395.232 74.0852L396.451 72.5L397.671 70.9147C386.434 62.2712 372.653 58 356.451 58V60ZM396.451 72.5L395.247 74.097C405.656 81.9436 412.331 92.834 415.243 106.905L417.201 106.5L419.16 106.095C416.071 91.166 408.913 79.3897 397.655 70.9029L396.451 72.5ZM417.201 106.5V104.5H382.951V106.5V108.5H417.201V106.5ZM382.951 106.5L384.885 105.988C383.262 99.8594 379.812 94.9573 374.587 91.3536L373.451 93L372.316 94.6464C376.757 97.7093 379.64 101.807 381.018 107.012L382.951 106.5ZM373.451 93L374.624 91.3801C369.41 87.6044 363.237 85.75 356.201 85.75V87.75V89.75C362.498 89.75 367.826 91.3956 372.278 94.6199L373.451 93ZM356.201 87.75V85.75C350.16 85.75 344.545 87.355 339.396 90.5507L340.451 92.25L341.506 93.9493C346.024 91.145 350.909 89.75 356.201 89.75V87.75ZM340.451 92.25L339.396 90.5507C334.229 93.7582 330.157 98.2915 327.173 104.084L328.951 105L330.729 105.916C333.412 100.709 337.007 96.7418 341.506 93.9493L340.451 92.25ZM328.951 105L327.173 104.084C324.16 109.933 322.701 116.931 322.701 125H324.701H326.701C326.701 117.403 328.075 111.067 330.729 105.916L328.951 105ZM324.701 125H322.701C322.701 132.913 324.164 139.898 327.162 145.894L328.951 145L330.74 144.106C328.072 138.769 326.701 132.421 326.701 125H324.701ZM328.951 145L327.162 145.894C330.142 151.853 334.214 156.482 339.396 159.699L340.451 158L341.506 156.301C337.022 153.518 333.427 149.48 330.74 144.106L328.951 145ZM340.451 158L339.44 159.725C344.583 162.741 350.183 164.25 356.201 164.25V162.25V160.25C350.886 160.25 345.986 158.926 341.463 156.275L340.451 158ZM356.201 162.25V164.25C363.196 164.25 369.34 162.584 374.547 159.173L373.451 157.5L372.355 155.827C367.895 158.749 362.54 160.25 356.201 160.25V162.25ZM373.451 157.5L374.587 159.146C379.843 155.521 383.28 150.43 384.891 143.985L382.951 143.5L381.011 143.015C379.622 148.57 376.726 152.812 372.316 155.854L373.451 157.5ZM382.951 143.5V145.5H417.201V143.5V141.5H382.951V143.5ZM417.201 143.5L415.241 143.103C412.5 156.646 405.837 167.47 395.228 175.667L396.451 177.25L397.674 178.833C409.066 170.03 416.236 158.354 419.161 143.897L417.201 143.5ZM396.451 177.25L395.217 175.677C384.787 183.86 371.907 188 356.451 188V190V192C372.662 192 386.449 187.64 397.686 178.823L396.451 177.25ZM455.502 185L454.608 186.789L454.616 186.793L454.625 186.798L455.502 185ZM440.252 171.5L441.954 170.449L441.954 170.449L440.252 171.5ZM449.002 122.75L450.202 124.35L450.211 124.343L450.22 124.336L449.002 122.75ZM504.252 113.5L503.872 115.464L503.872 115.464L504.252 113.5ZM517.002 116.75L516.341 118.638L519.002 119.569V116.75H517.002ZM509.502 91.75L508.227 93.2908L508.24 93.3014L508.253 93.3117L509.502 91.75ZM475.752 89.25L476.646 91.0388L476.673 91.0253L476.7 91.0109L475.752 89.25ZM467.502 101V103H469.132L469.461 101.403L467.502 101ZM436.752 101L434.765 100.775L434.513 103H436.752V101ZM445.752 78.75L447.288 80.0304L447.297 80.02L447.305 80.0096L445.752 78.75ZM464.752 64.75L464.002 62.8958L463.995 62.8986L463.988 62.9015L464.752 64.75ZM533.752 73.25L532.452 74.7702L532.458 74.7754L532.464 74.7804L533.752 73.25ZM550.502 152.75L548.55 153.184L548.561 153.235L548.575 153.285L550.502 152.75ZM554.252 158.5L553.358 160.289L553.358 160.289L554.252 158.5ZM562.002 159.75H564.002V157.75H562.002V159.75ZM562.002 187V189H564.002V187H562.002ZM520.252 169.75L522.115 169.023L520.772 165.581L518.624 168.588L520.252 169.75ZM500.502 161.75L501.576 163.437L501.585 163.431L501.594 163.425L500.502 161.75ZM510.002 151.75L511.717 152.779L511.726 152.764L511.734 152.749L510.002 151.75ZM515.252 137.75L517.213 138.142L517.575 136.334L515.801 135.827L515.252 137.75ZM503.002 135L502.568 136.952L502.609 136.961L502.65 136.969L503.002 135ZM473.502 138L474.691 139.608L474.702 139.6L473.502 138ZM472.752 161L471.457 162.524L471.475 162.539L471.494 162.554L472.752 161ZM479.752 190V188C470.655 188 462.884 186.376 456.379 183.202L455.502 185L454.625 186.798C461.787 190.291 470.183 192 479.752 192V190ZM455.502 185L456.396 183.211C450.021 180.024 445.236 175.763 441.954 170.449L440.252 171.5L438.55 172.551C442.268 178.57 447.649 183.31 454.608 186.789L455.502 185ZM440.252 171.5L441.954 170.449C438.654 165.107 437.002 159.222 437.002 152.75H435.002H433.002C433.002 159.944 434.85 166.56 438.55 172.551L440.252 171.5ZM435.002 152.75H437.002C437.002 140.297 441.435 130.925 450.202 124.35L449.002 122.75L447.802 121.15C437.902 128.575 433.002 139.203 433.002 152.75H435.002ZM449.002 122.75L450.22 124.336C459.114 117.507 470.898 114 485.752 114V112V110C470.273 110 457.556 113.66 447.784 121.164L449.002 122.75ZM485.752 112V114C492.833 114 498.866 114.495 503.872 115.464L504.252 113.5L504.632 111.536C499.304 110.505 493.004 110 485.752 110V112ZM504.252 113.5L503.872 115.464C508.985 116.453 513.132 117.515 516.341 118.638L517.002 116.75L517.663 114.862C514.205 113.652 509.853 112.547 504.632 111.536L504.252 113.5ZM517.002 116.75H519.002V110.75H517.002H515.002V116.75H517.002ZM517.002 110.75H519.002C519.002 101.705 516.38 94.6909 510.751 90.1883L509.502 91.75L508.253 93.3117C512.624 96.8091 515.002 102.462 515.002 110.75H517.002ZM509.502 91.75L510.777 90.2092C505.503 85.8445 498.682 83.75 490.502 83.75V85.75V87.75C497.989 87.75 503.834 89.6555 508.227 93.2908L509.502 91.75ZM490.502 85.75V83.75C484.711 83.75 479.461 84.9811 474.804 87.489L475.752 89.25L476.7 91.0109C480.709 88.8523 485.293 87.75 490.502 87.75V85.75ZM475.752 89.25L474.858 87.4611C469.867 89.9564 466.807 94.4596 465.543 100.597L467.502 101L469.461 101.403C470.531 96.2071 472.97 92.8769 476.646 91.0388L475.752 89.25ZM467.502 101V99H436.752V101V103H467.502V101ZM436.752 101L438.739 101.225C439.702 92.7247 442.572 85.6901 447.288 80.0304L445.752 78.75L444.216 77.4696C438.932 83.8099 435.802 91.6087 434.765 100.775L436.752 101ZM445.752 78.75L447.305 80.0096C452.086 74.1138 458.143 69.6437 465.515 66.5985L464.752 64.75L463.988 62.9015C456.028 66.1896 449.418 71.0528 444.198 77.4904L445.752 78.75ZM464.752 64.75L465.502 66.6042C473.073 63.5434 481.399 62 490.502 62V60V58C480.939 58 472.098 59.6232 464.002 62.8958L464.752 64.75ZM490.502 60V62C508.698 62 522.594 66.3426 532.452 74.7702L533.752 73.25L535.052 71.7298C524.244 62.4907 509.306 58 490.502 58V60ZM533.752 73.25L532.464 74.7804C542.431 83.1647 547.502 95.0571 547.502 110.75H549.502H551.502C551.502 94.1096 546.073 81.002 535.039 71.7195L533.752 73.25ZM549.502 110.75H547.502V138.75H549.502H551.502V110.75H549.502ZM549.502 138.75H547.502C547.502 145.11 547.833 149.959 548.55 153.184L550.502 152.75L552.454 152.316C551.838 149.541 551.502 145.057 551.502 138.75H549.502ZM550.502 152.75L548.575 153.285C549.462 156.479 550.932 159.076 553.358 160.289L554.252 158.5L555.146 156.711C554.239 156.257 553.208 155.021 552.429 152.215L550.502 152.75ZM554.252 158.5L553.358 160.289C555.409 161.315 558.005 161.75 561.002 161.75V159.75V157.75C558.332 157.75 556.428 157.352 555.146 156.711L554.252 158.5ZM561.002 159.75V161.75H562.002V159.75V157.75H561.002V159.75ZM562.002 159.75H560.002V187H562.002H564.002V159.75H562.002ZM562.002 187V185H555.002V187V189H562.002V187ZM555.002 187V185C546.327 185 539.267 183.852 533.745 181.643L533.002 183.5L532.259 185.357C538.404 187.815 546.01 189 555.002 189V187ZM533.002 183.5L533.745 181.643C528.512 179.55 524.617 175.435 522.115 169.023L520.252 169.75L518.389 170.477C521.22 177.732 525.825 182.783 532.259 185.357L533.002 183.5ZM520.252 169.75L518.624 168.588C514.644 174.16 509.374 178.803 502.773 182.506L503.752 184.25L504.73 185.994C511.796 182.031 517.526 177.007 521.879 170.912L520.252 169.75ZM503.752 184.25L502.773 182.506C496.286 186.145 488.635 188 479.752 188V190V192C489.203 192 497.551 190.022 504.73 185.994L503.752 184.25ZM487.002 165.25V167.25C492.629 167.25 497.522 166.017 501.576 163.437L500.502 161.75L499.428 160.063C496.148 162.15 492.042 163.25 487.002 163.25V165.25ZM500.502 161.75L501.594 163.425C505.697 160.75 509.071 157.189 511.717 152.779L510.002 151.75L508.287 150.721C505.933 154.644 502.973 157.75 499.409 160.075L500.502 161.75ZM510.002 151.75L511.734 152.749C514.345 148.224 516.171 143.352 517.213 138.142L515.252 137.75L513.291 137.358C512.333 142.148 510.659 146.609 508.27 150.751L510.002 151.75ZM515.252 137.75L515.801 135.827C512.22 134.804 508.068 133.873 503.354 133.031L503.002 135L502.65 136.969C507.269 137.794 511.284 138.696 514.703 139.673L515.252 137.75ZM503.002 135L503.436 133.048C498.792 132.016 494.063 131.5 489.252 131.5V133.5V135.5C493.775 135.5 498.212 135.984 502.568 136.952L503.002 135ZM489.252 133.5V131.5C482.449 131.5 476.739 133.072 472.302 136.4L473.502 138L474.702 139.6C478.264 136.928 483.055 135.5 489.252 135.5V133.5ZM473.502 138L472.313 136.392C467.922 139.637 465.752 144.261 465.752 150H467.752H469.752C469.752 145.406 471.415 142.029 474.691 139.608L473.502 138ZM467.752 150H465.752C465.752 155.067 467.662 159.298 471.457 162.524L472.752 161L474.047 159.476C471.175 157.035 469.752 153.933 469.752 150H467.752ZM472.752 161L471.494 162.554C475.453 165.759 480.697 167.25 487.002 167.25V165.25V163.25C481.307 163.25 477.051 161.907 474.01 159.446L472.752 161ZM583.424 187H581.424V189H583.424V187ZM583.424 63V61H581.424V63H583.424ZM615.924 63H617.924V61H615.924V63ZM615.924 81.75H613.924V88.9706L617.639 82.779L615.924 81.75ZM632.424 66L633.384 67.7542L633.4 67.7455L633.416 67.7365L632.424 66ZM692.674 74.75L691.148 76.043L691.153 76.0495L691.159 76.0559L692.674 74.75ZM705.174 187V189H707.174V187H705.174ZM672.674 187H670.674V189H672.674V187ZM666.174 96L664.563 97.1848L664.582 97.2116L664.603 97.2377L666.174 96ZM624.424 97L625.896 98.3532L625.905 98.3435L625.914 98.3336L624.424 97ZM615.924 187V189H617.924V187H615.924ZM583.424 187H585.424V63H583.424H581.424V187H583.424ZM583.424 63V65H615.924V63V61H583.424V63ZM615.924 63H613.924V81.75H615.924H617.924V63H615.924ZM615.924 81.75L617.639 82.779C621.451 76.4251 626.687 71.4218 633.384 67.7542L632.424 66L631.463 64.2458C624.161 68.2449 618.396 73.7416 614.209 80.721L615.924 81.75ZM632.424 66L633.416 67.7365C640.069 63.9348 647.883 62 656.924 62V60V58C647.298 58 638.779 60.0652 631.432 64.2635L632.424 66ZM656.924 60V62C671.967 62 683.272 66.7492 691.148 76.043L692.674 74.75L694.2 73.4569C685.409 63.0842 672.881 58 656.924 58V60ZM692.674 74.75L691.159 76.0559C699.062 85.2235 703.174 98.8461 703.174 117.25H705.174H707.174C707.174 98.3206 702.952 83.6098 694.189 73.4441L692.674 74.75ZM705.174 117.25H703.174V187H705.174H707.174V117.25H705.174ZM705.174 187V185H672.674V187V189H705.174V187ZM672.674 187H674.674V120.25H672.674H670.674V187H672.674ZM672.674 120.25H674.674C674.674 109.358 672.468 100.757 667.745 94.7622L666.174 96L664.603 97.2377C668.546 102.243 670.674 109.809 670.674 120.25H672.674ZM666.174 96L667.785 94.8152C663.132 88.4865 655.765 85.5 646.174 85.5V87.5V89.5C654.916 89.5 660.883 92.1802 664.563 97.1848L666.174 96ZM646.174 87.5V85.5C636.797 85.5 628.996 88.8904 622.933 95.6664L624.424 97L625.914 98.3336C631.185 92.4429 637.884 89.5 646.174 89.5V87.5ZM624.424 97L622.951 95.6467C616.845 102.291 613.924 111.503 613.924 123H615.924H617.924C617.924 112.164 620.669 104.042 625.896 98.3532L624.424 97ZM615.924 123H613.924V187H615.924H617.924V123H615.924ZM615.924 187V185H583.424V187V189H615.924V187ZM733.258 187H731.258V189H733.258V187ZM733.258 6.99999V4.99999H731.258V6.99999H733.258ZM765.758 6.99999H767.758V4.99999H765.758V6.99999ZM765.758 187V189H767.758V187H765.758ZM733.258 187H735.258V6.99999H733.258H731.258V187H733.258ZM733.258 6.99999V8.99999H765.758V6.99999V4.99999H733.258V6.99999ZM765.758 6.99999H763.758V187H765.758H767.758V6.99999H765.758ZM765.758 187V185H733.258V187V189H765.758V187ZM793.736 187H791.736V189H793.736V187ZM793.736 63V61H791.736V63H793.736ZM826.236 63H828.236V61H826.236V63ZM826.236 187V189H828.236V187H826.236ZM794.486 42.5H792.486V44.5H794.486V42.5ZM794.486 11V8.99999H792.486V11H794.486ZM825.986 11H827.986V8.99999H825.986V11ZM825.986 42.5V44.5H827.986V42.5H825.986ZM793.736 187H795.736V63H793.736H791.736V187H793.736ZM793.736 63V65H826.236V63V61H793.736V63ZM826.236 63H824.236V187H826.236H828.236V63H826.236ZM826.236 187V185H793.736V187V189H826.236V187ZM794.486 42.5H796.486V11H794.486H792.486V42.5H794.486ZM794.486 11V13H825.986V11V8.99999H794.486V11ZM825.986 11H823.986V42.5H825.986H827.986V11H825.986ZM825.986 42.5V40.5H794.486V42.5V44.5H825.986V42.5ZM863.215 187H861.215V189H863.215V187ZM867.215 21.25L869.024 22.1016L869.029 22.0916L869.034 22.0815L867.215 21.25ZM880.215 9.74999L879.645 7.83291L879.638 7.83507L879.63 7.83728L880.215 9.74999ZM919.715 6.99999H921.715V4.99999H919.715V6.99999ZM919.715 34.75V36.75H921.715V34.75H919.715ZM898.715 37.5L897.363 36.0257L897.363 36.0257L898.715 37.5ZM895.715 187V189H897.715V187H895.715ZM846.215 90.25H844.215V92.25H846.215V90.25ZM846.215 63V61H844.215V63H846.215ZM919.715 63H921.715V61H919.715V63ZM919.715 90.25V92.25H921.715V90.25H919.715ZM863.215 187H865.215V47H863.215H861.215V187H863.215ZM863.215 47H865.215C865.215 35.5882 866.548 27.3632 869.024 22.1016L867.215 21.25L865.405 20.3984C862.548 26.4701 861.215 35.4117 861.215 47H863.215ZM867.215 21.25L869.034 22.0815C871.469 16.7553 875.36 13.3246 880.799 11.6627L880.215 9.74999L879.63 7.83728C873.069 9.84205 868.294 14.078 865.396 20.4185L867.215 21.25ZM880.215 9.74999L880.785 11.6671C886.694 9.91033 894.564 8.99999 904.465 8.99999V6.99999V4.99999C894.366 4.99999 886.069 5.92298 879.645 7.83291L880.215 9.74999ZM904.465 6.99999V8.99999H919.715V6.99999V4.99999H904.465V6.99999ZM919.715 6.99999H917.715V34.75H919.715H921.715V6.99999H919.715ZM919.715 34.75V32.75H910.715V34.75V36.75H919.715V34.75ZM910.715 34.75V32.75C907.627 32.75 904.965 32.9846 902.768 33.488C900.59 33.9872 898.717 34.7849 897.363 36.0257L898.715 37.5L900.066 38.9743C900.713 38.3818 901.84 37.8045 903.662 37.387C905.465 36.9737 907.803 36.75 910.715 36.75V34.75ZM898.715 37.5L897.363 36.0257C895.977 37.2964 895.085 39.1179 894.53 41.2451C893.972 43.3843 893.715 45.9852 893.715 49H895.715H897.715C897.715 46.1815 897.958 43.949 898.4 42.2548C898.845 40.5487 899.453 39.5369 900.066 38.9743L898.715 37.5ZM895.715 49H893.715V187H895.715H897.715V49H895.715ZM895.715 187V185H863.215V187V189H895.715V187ZM846.215 90.25H848.215V63H846.215H844.215V90.25H846.215ZM846.215 63V65H919.715V63V61H846.215V63ZM919.715 63H917.715V90.25H919.715H921.715V63H919.715ZM919.715 90.25V88.25H846.215V90.25V92.25H919.715V90.25ZM940.031 242H938.031V244H940.031V242ZM940.031 216.25V214.25H938.031V216.25H940.031ZM972.781 215.25L972.207 213.334L972.121 213.36L972.038 213.393L972.781 215.25ZM982.281 202.25L980.466 201.411L980.444 201.458L980.424 201.507L982.281 202.25ZM993.031 179L995.016 179.244L991.216 178.161L993.031 179ZM991.281 193.25L989.434 194.016L992.341 201.028L993.266 193.494L991.281 193.25ZM937.281 63V61H934.287L935.434 63.766L937.281 63ZM972.531 63L974.39 62.2609L973.888 61H972.531V63ZM1007.03 149.75L1005.17 150.489L1006.99 155.063L1008.88 150.517L1007.03 149.75ZM1043.03 63V61H1041.7L1041.18 62.2334L1043.03 63ZM1077.53 63L1079.36 63.8032L1080.59 61H1077.53V63ZM1011.53 213.5L1009.7 212.697L1009.7 212.706L1011.53 213.5ZM1004.28 228.25L1002.56 227.233L1002.53 227.278L1002.51 227.325L1004.28 228.25ZM998.281 236.75L996.93 235.276L996.898 235.305L996.867 235.336L998.281 236.75ZM991.031 240.75L990.573 238.803L990.503 238.82L990.435 238.841L991.031 240.75ZM940.031 242H942.031V216.25H940.031H938.031V242H940.031ZM940.031 216.25V218.25H966.531V216.25V214.25H940.031V216.25ZM966.531 216.25V218.25C969.193 218.25 971.548 217.897 973.524 217.107L972.781 215.25L972.038 213.393C970.681 213.936 968.87 214.25 966.531 214.25V216.25ZM972.781 215.25L973.356 217.166C975.576 216.5 977.483 214.898 979.131 212.7L977.531 211.5L975.931 210.3C974.58 212.102 973.32 213 972.207 213.334L972.781 215.25ZM977.531 211.5L979.131 212.7C980.789 210.49 982.449 207.215 984.138 202.993L982.281 202.25L980.424 201.507C978.78 205.618 977.274 208.51 975.931 210.3L977.531 211.5ZM982.281 202.25L984.097 203.089L994.847 179.839L993.031 179L991.216 178.161L980.466 201.411L982.281 202.25ZM993.031 179L991.046 178.756L989.296 193.006L991.281 193.25L993.266 193.494L995.016 179.244L993.031 179ZM991.281 193.25L993.129 192.484L939.129 62.234L937.281 63L935.434 63.766L989.434 194.016L991.281 193.25ZM937.281 63V65H972.531V63V61H937.281V63ZM972.531 63L970.673 63.7391L1005.17 150.489L1007.03 149.75L1008.89 149.011L974.39 62.2609L972.531 63ZM1007.03 149.75L1008.88 150.517L1044.88 63.7666L1043.03 63L1041.18 62.2334L1005.18 148.983L1007.03 149.75ZM1043.03 63V65H1077.53V63V61H1043.03V63ZM1077.53 63L1075.7 62.1968L1009.7 212.697L1011.53 213.5L1013.36 214.303L1079.36 63.8032L1077.53 63ZM1011.53 213.5L1009.7 212.706C1007.05 218.834 1004.67 223.667 1002.56 227.233L1004.28 228.25L1006 229.267C1008.23 225.5 1010.68 220.499 1013.37 214.294L1011.53 213.5ZM1004.28 228.25L1002.51 227.325C1000.56 231.06 998.687 233.665 996.93 235.276L998.281 236.75L999.633 238.224C1001.88 236.169 1004 233.107 1006.05 229.175L1004.28 228.25ZM998.281 236.75L996.867 235.336C995.138 237.065 993.056 238.219 990.573 238.803L991.031 240.75L991.489 242.697C994.674 241.948 997.425 240.435 999.695 238.164L998.281 236.75ZM991.031 240.75L990.435 238.841C988.037 239.59 984.761 240 980.531 240V242V244C984.968 244 988.692 243.576 991.628 242.659L991.031 240.75ZM980.531 242V240H940.031V242V244H980.531V242ZM1075.7 187H1073.7V189H1075.7V187ZM1075.7 149V147H1073.7V149H1075.7ZM1116.2 149H1118.2V147H1116.2V149ZM1116.2 187V189H1118.2V187H1116.2ZM1075.7 187H1077.7V149H1075.7H1073.7V187H1075.7ZM1075.7 149V151H1116.2V149V147H1075.7V149ZM1116.2 149H1114.2V187H1116.2H1118.2V149H1116.2ZM1116.2 187V185H1075.7V187V189H1116.2V187Z" fill="url(#paint0_linear_9019_11028)" fill-opacity="0.95" mask="url(#path-1-outside-1_9019_11028)"/>
<defs>
<linearGradient id="paint0_linear_9019_11028" x1="752" y1="-5.5" x2="753.5" y2="201" gradientUnits="userSpaceOnUse">
<stop stop-color="#474747" stop-opacity="0.23"/>
<stop offset="1" stop-color="#F8F8F8" stop-opacity="0"/>
</linearGradient>
</defs>
</svg>
