<svg width="187" height="60" viewBox="0 0 187 60" fill="none" xmlns="http://www.w3.org/2000/svg">
<g filter="url(#filter0_ii_9017_10231)">
<path d="M58 30C58 14.536 45.464 2 30 2C14.536 2 2 14.536 2 30C2 45.464 14.536 58 30 58C45.464 58 58 45.464 58 30Z" fill="#F8F8F8" fill-opacity="0.03"/>
<path d="M57.25 30C57.25 14.9502 45.0498 2.75 30 2.75C14.9502 2.75 2.75 14.9502 2.75 30C2.75 45.0498 14.9502 57.25 30 57.25C45.0498 57.25 57.25 45.0498 57.25 30Z" stroke="url(#paint0_linear_9017_10231)" stroke-opacity="0.15" stroke-width="1.5"/>
<g filter="url(#filter1_dd_9017_10231)">
<path fill-rule="evenodd" clip-rule="evenodd" d="M41.173 21.1508C42.2757 22.2535 42.2757 24.0412 41.173 25.1439L28.4671 37.8498C27.3645 38.9524 25.5767 38.9524 24.4741 37.8498L18.827 32.2027C17.7243 31.1 17.7243 29.3123 18.827 28.2096C19.9296 27.107 21.7174 27.107 22.8201 28.2096L26.4706 31.8601L37.1799 21.1508C38.2826 20.0481 40.0704 20.0481 41.173 21.1508Z" fill="url(#paint1_linear_9017_10231)"/>
</g>
</g>
<path d="M86.2475 41.336C84.4182 41.336 82.9062 40.9067 81.7115 40.048C80.5355 39.1893 79.8729 38.0413 79.7235 36.604H83.4475C83.5782 37.1827 83.9049 37.6493 84.4275 38.004C84.9689 38.3587 85.6222 38.536 86.3875 38.536C87.1902 38.536 87.7969 38.3867 88.2075 38.088C88.6369 37.7893 88.8515 37.4253 88.8515 36.996C88.8515 36.6413 88.7022 36.3613 88.4035 36.156C88.1049 35.9507 87.5729 35.8013 86.8075 35.708C86.5275 35.6707 86.1635 35.6147 85.7155 35.54C85.2675 35.4653 84.9035 35.4 84.6235 35.344C83.8582 35.1947 83.1582 34.952 82.5235 34.616C81.8889 34.28 81.3755 33.832 80.9835 33.272C80.6102 32.712 80.4235 32.012 80.4235 31.172C80.4235 29.94 80.8809 28.904 81.7955 28.064C82.7289 27.2053 84.0822 26.776 85.8555 26.776C87.6289 26.776 89.0382 27.168 90.0835 27.952C91.1289 28.736 91.7169 29.8373 91.8475 31.256H88.3195C88.2635 30.696 87.9929 30.276 87.5075 29.996C87.0409 29.716 86.4995 29.576 85.8835 29.576C85.1555 29.576 84.5955 29.716 84.2035 29.996C83.8115 30.2573 83.6155 30.584 83.6155 30.976C83.6155 31.648 84.2315 32.096 85.4635 32.32C85.6502 32.3387 85.8835 32.376 86.1635 32.432C86.4622 32.4693 86.7702 32.516 87.0875 32.572C87.4049 32.6093 87.6569 32.6467 87.8435 32.684C88.3849 32.7587 88.9169 32.88 89.4395 33.048C89.9622 33.216 90.4289 33.4493 90.8395 33.748C91.2689 34.028 91.6049 34.4107 91.8475 34.896C92.1089 35.3813 92.2395 35.9787 92.2395 36.688C92.2395 37.6027 92.0062 38.4147 91.5395 39.124C91.0729 39.8147 90.3915 40.356 89.4955 40.748C88.6182 41.14 87.5355 41.336 86.2475 41.336ZM100.31 41.336C98.8914 41.336 97.6314 41.028 96.5301 40.412C95.4474 39.7773 94.5888 38.9187 93.9541 37.836C93.3381 36.7347 93.0301 35.4747 93.0301 34.056C93.0301 32.6373 93.3381 31.3867 93.9541 30.304C94.5888 29.2027 95.4474 28.344 96.5301 27.728C97.6314 27.0933 98.8914 26.776 100.31 26.776C102.083 26.776 103.577 27.2427 104.79 28.176C106.003 29.0907 106.778 30.36 107.114 31.984H103.278C103.11 31.3493 102.755 30.8453 102.214 30.472C101.673 30.08 101.029 29.884 100.282 29.884C99.6474 29.884 99.0594 30.052 98.5181 30.388C97.9768 30.724 97.5474 31.2 97.2301 31.816C96.9128 32.432 96.7541 33.1787 96.7541 34.056C96.7541 34.9147 96.9128 35.6613 97.2301 36.296C97.5474 36.9307 97.9768 37.416 98.5181 37.752C99.0594 38.0693 99.6474 38.228 100.282 38.228C101.029 38.228 101.673 38.0507 102.214 37.696C102.755 37.3227 103.11 36.8 103.278 36.128H107.114C106.797 37.696 106.022 38.956 104.79 39.908C103.577 40.86 102.083 41.336 100.31 41.336ZM112.72 41.336C111.674 41.336 110.769 41.1493 110.004 40.776C109.257 40.4027 108.688 39.8987 108.296 39.264C107.904 38.6293 107.708 37.9293 107.708 37.164C107.708 35.708 108.23 34.588 109.276 33.804C110.321 33.0013 111.693 32.6 113.392 32.6C114.194 32.6 114.885 32.656 115.464 32.768C116.042 32.88 116.518 33.0013 116.892 33.132V32.46C116.892 31.4893 116.612 30.78 116.052 30.332C115.51 29.884 114.801 29.66 113.924 29.66C113.308 29.66 112.757 29.7907 112.272 30.052C111.786 30.2947 111.478 30.7333 111.348 31.368H107.904C108.016 30.3787 108.352 29.548 108.912 28.876C109.472 28.1853 110.181 27.6627 111.04 27.308C111.917 26.9533 112.878 26.776 113.924 26.776C115.996 26.776 117.61 27.2707 118.768 28.26C119.944 29.2493 120.532 30.6493 120.532 32.46V35.596C120.532 36.3053 120.569 36.828 120.644 37.164C120.737 37.5 120.877 37.7147 121.064 37.808C121.25 37.9013 121.502 37.948 121.82 37.948H121.932V41H121.148C120.158 41 119.337 40.8693 118.684 40.608C118.03 40.3467 117.554 39.8333 117.256 39.068C116.789 39.7213 116.173 40.2627 115.408 40.692C114.642 41.1213 113.746 41.336 112.72 41.336ZM113.532 38.564C114.129 38.564 114.633 38.4333 115.044 38.172C115.473 37.892 115.828 37.5187 116.108 37.052C116.388 36.5667 116.584 36.044 116.696 35.484C116.304 35.372 115.846 35.2693 115.324 35.176C114.82 35.064 114.306 35.008 113.784 35.008C113.056 35.008 112.468 35.176 112.02 35.512C111.59 35.8293 111.376 36.2773 111.376 36.856C111.376 37.36 111.562 37.7707 111.936 38.088C112.328 38.4053 112.86 38.564 113.532 38.564ZM122.931 41V27.112H126.571V29.212C127.019 28.4653 127.635 27.8773 128.419 27.448C129.203 27 130.118 26.776 131.163 26.776C132.899 26.776 134.234 27.3267 135.167 28.428C136.1 29.5107 136.567 31.0973 136.567 33.188V41H132.927V33.524C132.927 32.3293 132.684 31.424 132.199 30.808C131.732 30.1733 130.986 29.856 129.959 29.856C128.97 29.856 128.158 30.2107 127.523 30.92C126.888 31.6107 126.571 32.5813 126.571 33.832V41H122.931Z" fill="#A3A3A6"/>
<path d="M138 41V20.84H141.64V41H138ZM143.374 41V27.112H147.014V41H143.374ZM143.458 24.816V21.288H146.986V24.816H143.458ZM149.756 41V25.32C149.756 24.032 149.905 23.0707 150.204 22.436C150.502 21.7827 150.988 21.3533 151.66 21.148C152.35 20.9427 153.256 20.84 154.376 20.84H156.084V23.948H155.076C154.404 23.948 153.956 24.0507 153.732 24.256C153.508 24.4613 153.396 24.8907 153.396 25.544V41H149.756ZM147.852 30.164V27.112H156.084V30.164H147.852ZM156.959 47.16V44.276H159.927C160.207 44.276 160.44 44.2387 160.627 44.164C160.814 44.108 160.991 43.968 161.159 43.744C161.327 43.52 161.504 43.1747 161.691 42.708L162.895 40.104L162.699 41.7L156.651 27.112H160.599L164.463 36.828L168.495 27.112H172.359L164.967 43.968C164.668 44.6587 164.398 45.2093 164.155 45.62C163.931 46.0493 163.707 46.3667 163.483 46.572C163.259 46.796 162.988 46.9453 162.671 47.02C162.372 47.1133 161.98 47.16 161.495 47.16H156.959ZM170.754 41V36.744H175.29V41H170.754Z" fill="#C9C9CB"/>
<defs>
<filter id="filter0_ii_9017_10231" x="2" y="2" width="58" height="60" filterUnits="userSpaceOnUse" color-interpolation-filters="sRGB">
<feFlood flood-opacity="0" result="BackgroundImageFix"/>
<feBlend mode="normal" in="SourceGraphic" in2="BackgroundImageFix" result="shape"/>
<feColorMatrix in="SourceAlpha" type="matrix" values="0 0 0 0 0 0 0 0 0 0 0 0 0 0 0 0 0 0 127 0" result="hardAlpha"/>
<feOffset/>
<feGaussianBlur stdDeviation="2"/>
<feComposite in2="hardAlpha" operator="arithmetic" k2="-1" k3="1"/>
<feColorMatrix type="matrix" values="0 0 0 0 0.0705882 0 0 0 0 0.0705882 0 0 0 0 0.0705882 0 0 0 0.6 0"/>
<feBlend mode="normal" in2="shape" result="effect1_innerShadow_9017_10231"/>
<feColorMatrix in="SourceAlpha" type="matrix" values="0 0 0 0 0 0 0 0 0 0 0 0 0 0 0 0 0 0 127 0" result="hardAlpha"/>
<feOffset dx="2" dy="4"/>
<feGaussianBlur stdDeviation="8"/>
<feComposite in2="hardAlpha" operator="arithmetic" k2="-1" k3="1"/>
<feColorMatrix type="matrix" values="0 0 0 0 0.972549 0 0 0 0 0.972549 0 0 0 0 0.972549 0 0 0 0.06 0"/>
<feBlend mode="normal" in2="effect1_innerShadow_9017_10231" result="effect2_innerShadow_9017_10231"/>
</filter>
<filter id="filter1_dd_9017_10231" x="5.29413" y="18.912" width="40.9412" height="35.2942" filterUnits="userSpaceOnUse" color-interpolation-filters="sRGB">
<feFlood flood-opacity="0" result="BackgroundImageFix"/>
<feColorMatrix in="SourceAlpha" type="matrix" values="0 0 0 0 0 0 0 0 0 0 0 0 0 0 0 0 0 0 127 0" result="hardAlpha"/>
<feOffset dx="-4.23529" dy="7.05882"/>
<feGaussianBlur stdDeviation="4.23529"/>
<feColorMatrix type="matrix" values="0 0 0 0 0 0 0 0 0 0 0 0 0 0 0 0 0 0 0.2 0"/>
<feBlend mode="normal" in2="BackgroundImageFix" result="effect1_dropShadow_9017_10231"/>
<feColorMatrix in="SourceAlpha" type="matrix" values="0 0 0 0 0 0 0 0 0 0 0 0 0 0 0 0 0 0 127 0" result="hardAlpha"/>
<feOffset dx="-1.41176" dy="2.82353"/>
<feGaussianBlur stdDeviation="2.11765"/>
<feComposite in2="hardAlpha" operator="out"/>
<feColorMatrix type="matrix" values="0 0 0 0 0 0 0 0 0 0 0 0 0 0 0 0 0 0 0.1 0"/>
<feBlend mode="normal" in2="effect1_dropShadow_9017_10231" result="effect2_dropShadow_9017_10231"/>
<feBlend mode="normal" in="SourceGraphic" in2="effect2_dropShadow_9017_10231" result="shape"/>
</filter>
<linearGradient id="paint0_linear_9017_10231" x1="30" y1="2" x2="54.3611" y2="63.4948" gradientUnits="userSpaceOnUse">
<stop stop-color="white" stop-opacity="0.4"/>
<stop offset="0.4" stop-color="white" stop-opacity="0.01"/>
<stop offset="0.6" stop-color="white" stop-opacity="0.01"/>
<stop offset="1" stop-color="white" stop-opacity="0.1"/>
</linearGradient>
<linearGradient id="paint1_linear_9017_10231" x1="30" y1="20.3238" x2="30" y2="38.6767" gradientUnits="userSpaceOnUse">
<stop stop-color="#F8F8F8" stop-opacity="0.9"/>
<stop offset="1" stop-color="#F8F8F8" stop-opacity="0.3"/>
</linearGradient>
</defs>
</svg>
