<svg width="785" height="401" viewBox="0 0 785 401" fill="none" xmlns="http://www.w3.org/2000/svg">
<circle cx="600.5" cy="259.5" r="0.5" fill="white" fill-opacity="0.3"/>
<circle cx="336.5" cy="390.5" r="0.5" fill="white" fill-opacity="0.4"/>
<circle cx="255.5" cy="229.5" r="0.5" fill="white" fill-opacity="0.3"/>
<g filter="url(#filter0_d_790_21011)">
<circle cx="10.5" cy="376.5" r="0.5" fill="white" fill-opacity="0.6" shape-rendering="crispEdges"/>
</g>
<circle cx="749.5" cy="234.5" r="0.5" fill="white" fill-opacity="0.5"/>
<circle cx="43.5" cy="38.5" r="0.5" fill="white" fill-opacity="0.4"/>
<circle cx="593.5" cy="127.5" r="0.5" fill="white" fill-opacity="0.4"/>
<circle cx="680.5" cy="386.5" r="0.5" fill="white" fill-opacity="0.4"/>
<circle cx="168.5" cy="129.5" r="0.5" fill="white" fill-opacity="0.6"/>
<circle cx="218.5" cy="210.5" r="0.5" fill="white" fill-opacity="0.3"/>
<circle cx="335.5" cy="165.5" r="0.5" fill="white" fill-opacity="0.5"/>
<circle cx="214.5" cy="271.5" r="0.5" fill="white" fill-opacity="0.6"/>
<circle cx="115.5" cy="395.5" r="0.5" fill="white" fill-opacity="0.3"/>
<circle cx="706.5" cy="51.5" r="0.5" fill="white" fill-opacity="0.5"/>
<circle cx="109.5" cy="338.5" r="0.5" fill="white" fill-opacity="0.5"/>
<circle cx="370.5" cy="233.5" r="0.5" fill="white" fill-opacity="0.5"/>
<circle cx="11.5" cy="287.5" r="0.5" fill="white" fill-opacity="0.4"/>
<circle cx="61.5" cy="170.5" r="0.5" fill="white" fill-opacity="0.3"/>
<circle cx="556.5" cy="289.5" r="0.5" fill="white" fill-opacity="0.3"/>
<circle cx="691.5" cy="114.5" r="0.5" fill="white" fill-opacity="0.5"/>
<circle cx="282.5" cy="64.5" r="0.5" fill="white" fill-opacity="0.4"/>
<circle cx="589.5" cy="252.5" r="0.5" fill="white" fill-opacity="0.3"/>
<circle cx="66.5" cy="320.5" r="0.5" fill="white" fill-opacity="0.4"/>
<circle cx="679.5" cy="145.5" r="0.5" fill="white" fill-opacity="0.5"/>
<circle cx="776.5" cy="267.5" r="0.5" fill="white" fill-opacity="0.3"/>
<circle cx="662.5" cy="262.5" r="0.5" fill="white" fill-opacity="0.4"/>
<circle cx="481.5" cy="38.5" r="0.5" fill="white" fill-opacity="0.6"/>
<circle cx="342.5" cy="17.5" r="0.5" fill="white" fill-opacity="0.5"/>
<circle cx="683.5" cy="50.5" r="0.5" fill="white" fill-opacity="0.6"/>
<circle cx="152.5" cy="122.5" r="0.5" fill="white" fill-opacity="0.6"/>
<circle cx="241.5" cy="135.5" r="0.5" fill="white" fill-opacity="0.4"/>
<circle cx="203.5" cy="221.5" r="0.5" fill="white" fill-opacity="0.6"/>
<circle cx="577.5" cy="366.5" r="0.5" fill="white" fill-opacity="0.5"/>
<circle cx="49.5" cy="261.5" r="0.5" fill="white" fill-opacity="0.3"/>
<circle cx="253.5" cy="361.5" r="0.5" fill="white" fill-opacity="0.4"/>
<circle cx="541.5" cy="166.5" r="0.5" fill="white" fill-opacity="0.6"/>
<circle cx="585.5" cy="6.5" r="0.5" fill="white" fill-opacity="0.5"/>
<circle cx="355.5" cy="223.5" r="0.5" fill="white" fill-opacity="0.5"/>
<circle cx="271.5" cy="149.5" r="0.5" fill="white" fill-opacity="0.5"/>
<circle cx="24.5" cy="396.5" r="0.5" fill="white" fill-opacity="0.4"/>
<circle cx="32.5" cy="98.5" r="0.5" fill="white" fill-opacity="0.6"/>
<circle cx="436.5" cy="392.5" r="0.5" fill="white" fill-opacity="0.5"/>
<circle cx="47.5" cy="93.5" r="0.5" fill="white" fill-opacity="0.4"/>
<circle cx="69.5" cy="320.5" r="0.5" fill="white" fill-opacity="0.5"/>
<circle cx="619.5" cy="274.5" r="0.5" fill="white" fill-opacity="0.4"/>
<circle cx="98.5" cy="34.5" r="0.5" fill="white" fill-opacity="0.3"/>
<circle cx="646.5" cy="291.5" r="0.5" fill="white" fill-opacity="0.6"/>
<circle cx="74.5" cy="362.5" r="0.5" fill="white" fill-opacity="0.4"/>
<circle cx="44.5" cy="88.5" r="0.5" fill="white" fill-opacity="0.6"/>
<circle cx="439.5" cy="1.5" r="0.5" fill="white" fill-opacity="0.3"/>
<circle cx="401.5" cy="43.5" r="0.5" fill="white" fill-opacity="0.5"/>
<circle cx="35.5" cy="66.5" r="0.5" fill="white" fill-opacity="0.6"/>
<circle cx="529.5" cy="4.5" r="0.5" fill="white" fill-opacity="0.6"/>
<circle cx="708.5" cy="171.5" r="0.5" fill="white" fill-opacity="0.4"/>
<circle cx="436.5" cy="307.5" r="0.5" fill="white" fill-opacity="0.4"/>
<circle cx="677.5" cy="140.5" r="0.5" fill="white" fill-opacity="0.5"/>
<circle cx="616.5" cy="86.5" r="0.5" fill="white" fill-opacity="0.4"/>
<circle cx="50.5" cy="274.5" r="0.5" fill="white" fill-opacity="0.5"/>
<circle cx="676.5" cy="205.5" r="0.5" fill="white" fill-opacity="0.4"/>
<circle cx="25.5" cy="20.5" r="0.5" fill="white" fill-opacity="0.6"/>
<g opacity="0.5" filter="url(#filter1_d_790_21011)">
<circle cx="603.5" cy="390.5" r="0.5" fill="white" fill-opacity="0.6" shape-rendering="crispEdges"/>
</g>
<circle cx="490.5" cy="0.5" r="0.5" fill="white" fill-opacity="0.6"/>
<circle cx="748.5" cy="158.5" r="0.5" fill="white" fill-opacity="0.5"/>
<circle cx="697.5" cy="270.5" r="0.5" fill="white" fill-opacity="0.6"/>
<circle cx="681.5" cy="109.5" r="0.5" fill="white" fill-opacity="0.6"/>
<circle cx="68.5" cy="336.5" r="0.5" fill="white" fill-opacity="0.5"/>
<circle cx="673.5" cy="207.5" r="0.5" fill="white" fill-opacity="0.4"/>
<circle cx="313.5" cy="13.5" r="0.5" fill="white" fill-opacity="0.5"/>
<circle cx="58.5" cy="83.5" r="0.5" fill="white" fill-opacity="0.5"/>
<circle cx="463.5" cy="293.5" r="0.5" fill="white" fill-opacity="0.5"/>
<circle cx="759.5" cy="140.5" r="0.5" fill="white" fill-opacity="0.5"/>
<circle cx="155.5" cy="43.5" r="0.5" fill="white" fill-opacity="0.5"/>
<circle cx="662.5" cy="97.5" r="0.5" fill="white" fill-opacity="0.3"/>
<circle cx="48.5" cy="52.5" r="0.5" fill="white" fill-opacity="0.4"/>
<circle cx="342.5" cy="154.5" r="0.5" fill="white" fill-opacity="0.6"/>
<circle cx="758.5" cy="389.5" r="0.5" fill="white" fill-opacity="0.5"/>
<circle cx="399.5" cy="123.5" r="0.5" fill="white" fill-opacity="0.3"/>
<circle cx="755.5" cy="359.5" r="0.5" fill="white" fill-opacity="0.5"/>
<circle cx="114.5" cy="350.5" r="0.5" fill="white" fill-opacity="0.6"/>
<circle cx="428.5" cy="350.5" r="0.5" fill="white" fill-opacity="0.5"/>
<circle cx="607.5" cy="138.5" r="0.5" fill="white" fill-opacity="0.6"/>
<circle cx="419.5" cy="72.5" r="0.5" fill="white" fill-opacity="0.5"/>
<circle cx="238.5" cy="73.5" r="0.5" fill="white" fill-opacity="0.6"/>
<circle cx="147.5" cy="189.5" r="0.5" fill="white" fill-opacity="0.3"/>
<circle cx="733.5" cy="141.5" r="0.5" fill="white" fill-opacity="0.3"/>
<circle cx="545.5" cy="240.5" r="0.5" fill="white" fill-opacity="0.5"/>
<circle cx="585.5" cy="225.5" r="0.5" fill="white" fill-opacity="0.4"/>
<circle cx="686.5" cy="265.5" r="0.5" fill="white" fill-opacity="0.4"/>
<circle cx="83.5" cy="273.5" r="0.5" fill="white" fill-opacity="0.6"/>
<circle cx="255.5" cy="30.5" r="0.5" fill="white" fill-opacity="0.4"/>
<circle cx="521.5" cy="15.5" r="0.5" fill="white" fill-opacity="0.3"/>
<circle cx="181.5" cy="126.5" r="0.5" fill="white" fill-opacity="0.5"/>
<circle cx="177.5" cy="239.5" r="0.5" fill="white" fill-opacity="0.4"/>
<circle cx="65.5" cy="37.5" r="0.5" fill="white" fill-opacity="0.5"/>
<circle cx="652.5" cy="369.5" r="0.5" fill="white" fill-opacity="0.5"/>
<circle cx="618.5" cy="203.5" r="0.5" fill="white" fill-opacity="0.5"/>
<circle cx="550.5" cy="110.5" r="0.5" fill="white" fill-opacity="0.4"/>
<circle cx="574.5" cy="186.5" r="0.5" fill="white" fill-opacity="0.4"/>
<circle cx="515.5" cy="168.5" r="0.5" fill="white" fill-opacity="0.4"/>
<circle cx="137.5" cy="158.5" r="0.5" fill="white" fill-opacity="0.4"/>
<circle cx="348.5" cy="77.5" r="0.5" fill="white" fill-opacity="0.3"/>
<circle cx="114.5" cy="155.5" r="0.5" fill="white" fill-opacity="0.4"/>
<circle cx="484.5" cy="276.5" r="0.5" fill="white" fill-opacity="0.5"/>
<circle cx="111.5" cy="290.5" r="0.5" fill="white" fill-opacity="0.6"/>
<circle cx="161.5" cy="237.5" r="0.5" fill="white" fill-opacity="0.3"/>
<circle cx="298.5" cy="5.5" r="0.5" fill="white" fill-opacity="0.3"/>
<circle cx="190.5" cy="300.5" r="0.5" fill="white" fill-opacity="0.5"/>
<circle cx="182.5" cy="170.5" r="0.5" fill="white" fill-opacity="0.4"/>
<circle cx="107.5" cy="96.5" r="0.5" fill="white" fill-opacity="0.4"/>
<circle cx="326.5" cy="34.5" r="0.5" fill="white" fill-opacity="0.4"/>
<circle cx="777.5" cy="29.5" r="0.5" fill="white" fill-opacity="0.3"/>
<circle cx="686.5" cy="32.5" r="0.5" fill="white" fill-opacity="0.4"/>
<circle cx="209.5" cy="47.5" r="0.5" fill="white" fill-opacity="0.5"/>
<circle cx="322.5" cy="351.5" r="0.5" fill="white" fill-opacity="0.6"/>
<circle cx="561.5" cy="178.5" r="0.5" fill="white" fill-opacity="0.3"/>
<circle cx="147.5" cy="94.5" r="0.5" fill="white" fill-opacity="0.3"/>
<circle cx="360.5" cy="230.5" r="0.5" fill="white" fill-opacity="0.3"/>
<circle cx="306.5" cy="123.5" r="0.5" fill="white" fill-opacity="0.4"/>
<circle cx="493.5" cy="302.5" r="0.5" fill="white" fill-opacity="0.5"/>
<circle cx="166.5" cy="263.5" r="0.5" fill="white" fill-opacity="0.4"/>
<circle cx="544.5" cy="69.5" r="0.5" fill="white" fill-opacity="0.4"/>
<circle cx="305.5" cy="305.5" r="0.5" fill="white" fill-opacity="0.3"/>
<circle cx="676.5" cy="394.5" r="0.5" fill="white" fill-opacity="0.5"/>
<circle cx="649.5" cy="318.5" r="0.5" fill="white" fill-opacity="0.4"/>
<circle cx="660.5" cy="355.5" r="0.5" fill="white" fill-opacity="0.3"/>
<circle cx="340.5" cy="221.5" r="0.5" fill="white" fill-opacity="0.3"/>
<circle cx="545.5" cy="208.5" r="0.5" fill="white" fill-opacity="0.5"/>
<circle cx="223.5" cy="97.5" r="0.5" fill="white" fill-opacity="0.4"/>
<circle cx="592.5" cy="131.5" r="0.5" fill="white" fill-opacity="0.4"/>
<circle cx="47.5" cy="58.5" r="0.5" fill="white" fill-opacity="0.5"/>
<circle cx="343.5" cy="337.5" r="0.5" fill="white" fill-opacity="0.4"/>
<circle cx="329.5" cy="245.5" r="0.5" fill="white" fill-opacity="0.5"/>
<circle cx="143.5" cy="77.5" r="0.5" fill="white" fill-opacity="0.6"/>
<circle cx="136.5" cy="179.5" r="0.5" fill="white" fill-opacity="0.4"/>
<circle cx="69.5" cy="341.5" r="0.5" fill="white" fill-opacity="0.5"/>
<circle cx="564.5" cy="354.5" r="0.5" fill="white" fill-opacity="0.4"/>
<circle cx="281.5" cy="312.5" r="0.5" fill="white" fill-opacity="0.3"/>
<circle cx="678.5" cy="266.5" r="0.5" fill="white" fill-opacity="0.3"/>
<circle cx="202.5" cy="259.5" r="0.5" fill="white" fill-opacity="0.4"/>
<circle cx="122.5" cy="362.5" r="0.5" fill="white" fill-opacity="0.3"/>
<g opacity="0.1" filter="url(#filter2_d_790_21011)">
<circle cx="331.5" cy="365.5" r="0.5" fill="white" fill-opacity="0.6" shape-rendering="crispEdges"/>
</g>
<circle cx="393.5" cy="350.5" r="0.5" fill="white" fill-opacity="0.5"/>
<circle cx="381.5" cy="187.5" r="0.5" fill="white" fill-opacity="0.5"/>
<circle cx="773.5" cy="245.5" r="0.5" fill="white" fill-opacity="0.4"/>
<circle cx="115.5" cy="224.5" r="0.5" fill="white" fill-opacity="0.4"/>
<circle cx="30.5" cy="234.5" r="0.5" fill="white" fill-opacity="0.4"/>
<circle cx="304.5" cy="1.5" r="0.5" fill="white" fill-opacity="0.4"/>
<circle cx="277.5" cy="17.5" r="0.5" fill="white" fill-opacity="0.4"/>
<circle cx="91.5" cy="97.5" r="0.5" fill="white" fill-opacity="0.3"/>
<circle cx="14.5" cy="20.5" r="0.5" fill="white" fill-opacity="0.4"/>
<circle cx="73.5" cy="329.5" r="0.5" fill="white" fill-opacity="0.4"/>
<circle cx="308.5" cy="394.5" r="0.5" fill="white" fill-opacity="0.6"/>
<circle cx="131.5" cy="262.5" r="0.5" fill="white" fill-opacity="0.4"/>
<circle cx="431.5" cy="262.5" r="0.5" fill="white" fill-opacity="0.5"/>
<circle cx="176.5" cy="119.5" r="0.5" fill="white" fill-opacity="0.4"/>
<circle cx="510.5" cy="104.5" r="0.5" fill="white" fill-opacity="0.5"/>
<circle cx="345.5" cy="241.5" r="0.5" fill="white" fill-opacity="0.6"/>
<circle cx="425.5" cy="260.5" r="0.5" fill="white" fill-opacity="0.4"/>
<circle cx="176.5" cy="270.5" r="0.5" fill="white" fill-opacity="0.4"/>
<circle cx="358.5" cy="355.5" r="0.5" fill="white" fill-opacity="0.4"/>
<circle cx="615.5" cy="76.5" r="0.5" fill="white" fill-opacity="0.5"/>
<circle cx="522.5" cy="8.5" r="0.5" fill="white" fill-opacity="0.5"/>
<circle cx="330.5" cy="183.5" r="0.5" fill="white" fill-opacity="0.5"/>
<circle cx="496.5" cy="76.5" r="0.5" fill="white" fill-opacity="0.6"/>
<circle cx="280.5" cy="21.5" r="0.5" fill="white" fill-opacity="0.6"/>
<circle cx="47.5" cy="223.5" r="0.5" fill="white" fill-opacity="0.4"/>
<circle cx="683.5" cy="239.5" r="0.5" fill="white" fill-opacity="0.5"/>
<circle cx="151.5" cy="125.5" r="0.5" fill="white" fill-opacity="0.4"/>
<circle cx="764.5" cy="160.5" r="0.5" fill="white" fill-opacity="0.4"/>
<circle cx="37.5" cy="116.5" r="0.5" fill="white" fill-opacity="0.5"/>
<circle cx="315.5" cy="210.5" r="0.5" fill="white" fill-opacity="0.4"/>
<circle cx="276.5" cy="2.5" r="0.5" fill="white" fill-opacity="0.3"/>
<circle cx="413.5" cy="116.5" r="0.5" fill="white" fill-opacity="0.5"/>
<circle cx="596.5" cy="390.5" r="0.5" fill="white" fill-opacity="0.5"/>
<circle cx="499.5" cy="258.5" r="0.5" fill="white" fill-opacity="0.5"/>
<circle cx="527.5" cy="211.5" r="0.5" fill="white" fill-opacity="0.6"/>
<circle cx="651.5" cy="249.5" r="0.5" fill="white" fill-opacity="0.4"/>
<circle cx="147.5" cy="248.5" r="0.5" fill="white" fill-opacity="0.3"/>
<circle cx="187.5" cy="92.5" r="0.5" fill="white" fill-opacity="0.4"/>
<circle cx="495.5" cy="212.5" r="0.5" fill="white" fill-opacity="0.4"/>
<circle cx="563.5" cy="319.5" r="0.5" fill="white" fill-opacity="0.6"/>
<circle cx="283.5" cy="11.5" r="0.5" fill="white" fill-opacity="0.3"/>
<circle cx="652.5" cy="319.5" r="0.5" fill="white" fill-opacity="0.6"/>
<circle cx="345.5" cy="234.5" r="0.5" fill="white" fill-opacity="0.5"/>
<circle cx="664.5" cy="250.5" r="0.5" fill="white" fill-opacity="0.4"/>
<circle cx="784.5" cy="156.5" r="0.5" fill="white" fill-opacity="0.3"/>
<circle cx="157.5" cy="230.5" r="0.5" fill="white" fill-opacity="0.6"/>
<circle cx="161.5" cy="109.5" r="0.5" fill="white" fill-opacity="0.3"/>
<circle cx="358.5" cy="290.5" r="0.5" fill="white" fill-opacity="0.4"/>
<circle cx="648.5" cy="187.5" r="0.5" fill="white" fill-opacity="0.4"/>
<circle cx="187.5" cy="142.5" r="0.5" fill="white" fill-opacity="0.5"/>
<circle cx="9.5" cy="358.5" r="0.5" fill="white" fill-opacity="0.4"/>
<circle cx="597.5" cy="386.5" r="0.5" fill="white" fill-opacity="0.5"/>
<circle cx="553.5" cy="203.5" r="0.5" fill="white" fill-opacity="0.3"/>
<circle cx="131.5" cy="352.5" r="0.5" fill="white" fill-opacity="0.5"/>
<circle cx="234.5" cy="168.5" r="0.5" fill="white" fill-opacity="0.4"/>
<circle cx="340.5" cy="141.5" r="0.5" fill="white" fill-opacity="0.3"/>
<circle cx="510.5" cy="204.5" r="0.5" fill="white" fill-opacity="0.3"/>
<circle cx="563.5" cy="165.5" r="0.5" fill="white" fill-opacity="0.5"/>
<g filter="url(#filter3_d_790_21011)">
<circle cx="480.5" cy="10.5" r="0.5" fill="white" fill-opacity="0.6" shape-rendering="crispEdges"/>
</g>
<defs>
<filter id="filter0_d_790_21011" x="0" y="366" width="21" height="21" filterUnits="userSpaceOnUse" color-interpolation-filters="sRGB">
<feFlood flood-opacity="0" result="BackgroundImageFix"/>
<feColorMatrix in="SourceAlpha" type="matrix" values="0 0 0 0 0 0 0 0 0 0 0 0 0 0 0 0 0 0 127 0" result="hardAlpha"/>
<feMorphology radius="2" operator="dilate" in="SourceAlpha" result="effect1_dropShadow_790_21011"/>
<feOffset/>
<feGaussianBlur stdDeviation="4"/>
<feComposite in2="hardAlpha" operator="out"/>
<feColorMatrix type="matrix" values="0 0 0 0 1 0 0 0 0 1 0 0 0 0 1 0 0 0 0.3 0"/>
<feBlend mode="normal" in2="BackgroundImageFix" result="effect1_dropShadow_790_21011"/>
<feBlend mode="normal" in="SourceGraphic" in2="effect1_dropShadow_790_21011" result="shape"/>
</filter>
<filter id="filter1_d_790_21011" x="593" y="380" width="21" height="21" filterUnits="userSpaceOnUse" color-interpolation-filters="sRGB">
<feFlood flood-opacity="0" result="BackgroundImageFix"/>
<feColorMatrix in="SourceAlpha" type="matrix" values="0 0 0 0 0 0 0 0 0 0 0 0 0 0 0 0 0 0 127 0" result="hardAlpha"/>
<feMorphology radius="2" operator="dilate" in="SourceAlpha" result="effect1_dropShadow_790_21011"/>
<feOffset/>
<feGaussianBlur stdDeviation="4"/>
<feComposite in2="hardAlpha" operator="out"/>
<feColorMatrix type="matrix" values="0 0 0 0 1 0 0 0 0 1 0 0 0 0 1 0 0 0 0.3 0"/>
<feBlend mode="normal" in2="BackgroundImageFix" result="effect1_dropShadow_790_21011"/>
<feBlend mode="normal" in="SourceGraphic" in2="effect1_dropShadow_790_21011" result="shape"/>
</filter>
<filter id="filter2_d_790_21011" x="321" y="355" width="21" height="21" filterUnits="userSpaceOnUse" color-interpolation-filters="sRGB">
<feFlood flood-opacity="0" result="BackgroundImageFix"/>
<feColorMatrix in="SourceAlpha" type="matrix" values="0 0 0 0 0 0 0 0 0 0 0 0 0 0 0 0 0 0 127 0" result="hardAlpha"/>
<feMorphology radius="2" operator="dilate" in="SourceAlpha" result="effect1_dropShadow_790_21011"/>
<feOffset/>
<feGaussianBlur stdDeviation="4"/>
<feComposite in2="hardAlpha" operator="out"/>
<feColorMatrix type="matrix" values="0 0 0 0 1 0 0 0 0 1 0 0 0 0 1 0 0 0 0.3 0"/>
<feBlend mode="normal" in2="BackgroundImageFix" result="effect1_dropShadow_790_21011"/>
<feBlend mode="normal" in="SourceGraphic" in2="effect1_dropShadow_790_21011" result="shape"/>
</filter>
<filter id="filter3_d_790_21011" x="470" y="0" width="21" height="21" filterUnits="userSpaceOnUse" color-interpolation-filters="sRGB">
<feFlood flood-opacity="0" result="BackgroundImageFix"/>
<feColorMatrix in="SourceAlpha" type="matrix" values="0 0 0 0 0 0 0 0 0 0 0 0 0 0 0 0 0 0 127 0" result="hardAlpha"/>
<feMorphology radius="2" operator="dilate" in="SourceAlpha" result="effect1_dropShadow_790_21011"/>
<feOffset/>
<feGaussianBlur stdDeviation="4"/>
<feComposite in2="hardAlpha" operator="out"/>
<feColorMatrix type="matrix" values="0 0 0 0 1 0 0 0 0 1 0 0 0 0 1 0 0 0 0.3 0"/>
<feBlend mode="normal" in2="BackgroundImageFix" result="effect1_dropShadow_790_21011"/>
<feBlend mode="normal" in="SourceGraphic" in2="effect1_dropShadow_790_21011" result="shape"/>
</filter>
</defs>
</svg>
