<svg width="368" height="368" viewBox="0 0 368 368" fill="none" xmlns="http://www.w3.org/2000/svg">
<mask id="mask0_737_39123" style="mask-type:alpha" maskUnits="userSpaceOnUse" x="0" y="0" width="368" height="368">
<circle cx="184" cy="184" r="184" fill="url(#paint0_radial_737_39123)"/>
</mask>
<g mask="url(#mask0_737_39123)">
<circle cx="83.5" cy="19.5" r="0.5" fill="white" fill-opacity="0.4"/>
<circle cx="241.5" cy="291.5" r="0.5" fill="white" fill-opacity="0.3"/>
<circle cx="56.6092" cy="303.609" r="0.609185" fill="white" fill-opacity="0.6"/>
<circle cx="304.5" cy="307.5" r="0.5" fill="white" fill-opacity="0.5"/>
<circle cx="290.5" cy="91.5" r="0.5" fill="white" fill-opacity="0.6"/>
<circle cx="139.5" cy="90.5" r="0.5" fill="white" fill-opacity="0.5"/>
<circle cx="248.542" cy="143.542" r="0.541998" fill="white" fill-opacity="0.4"/>
<circle cx="67.6188" cy="210.619" r="0.618842" fill="white" fill-opacity="0.4"/>
<circle cx="111.5" cy="37.5" r="0.5" fill="white" fill-opacity="0.4"/>
<circle cx="151.5" cy="77.5" r="0.5" fill="white" fill-opacity="0.4"/>
<circle cx="199.5" cy="333.5" r="0.5" fill="white" fill-opacity="0.6"/>
<circle cx="53.5391" cy="158.539" r="0.539137" fill="white" fill-opacity="0.3"/>
<circle cx="2.5" cy="114.5" r="0.5" fill="white" fill-opacity="0.4"/>
<circle cx="287.5" cy="342.5" r="0.5" fill="white" fill-opacity="0.6"/>
<circle cx="352.535" cy="162.535" r="0.535221" fill="white" fill-opacity="0.5"/>
<circle cx="47.7309" cy="363.731" r="0.730863" fill="white" fill-opacity="0.5"/>
<circle cx="105.5" cy="364.5" r="0.5" fill="white" fill-opacity="0.4"/>
<circle cx="74.5" cy="80.5" r="0.5" fill="white" fill-opacity="0.5"/>
<circle cx="153.5" cy="351.5" r="0.5" fill="white" fill-opacity="0.6"/>
<circle cx="359.549" cy="327.549" r="0.548527" fill="white" fill-opacity="0.3"/>
<circle cx="27.5" cy="13.5" r="0.5" fill="white" fill-opacity="0.5"/>
<circle cx="328.66" cy="245.66" r="0.660459" fill="white" fill-opacity="0.6"/>
<circle cx="181.633" cy="317.633" r="0.633273" fill="white" fill-opacity="0.4"/>
<circle cx="8.66671" cy="229.667" r="0.666706" fill="white" fill-opacity="0.6"/>
<circle cx="57.5" cy="153.5" r="0.5" fill="white" fill-opacity="0.5"/>
<circle cx="315.602" cy="122.602" r="0.601793" fill="white" fill-opacity="0.5"/>
<circle cx="338.5" cy="305.5" r="0.5" fill="white" fill-opacity="0.4"/>
<circle cx="18.5" cy="157.5" r="0.5" fill="white" fill-opacity="0.5"/>
<circle cx="298.5" cy="289.5" r="0.5" fill="white" fill-opacity="0.5"/>
<circle cx="344.5" cy="94.5" r="0.5" fill="white" fill-opacity="0.5"/>
<circle cx="280.5" cy="300.5" r="0.5" fill="white" fill-opacity="0.3"/>
<circle cx="126.5" cy="293.5" r="0.5" fill="white" fill-opacity="0.4"/>
<circle cx="64.6943" cy="345.694" r="0.694286" fill="white" fill-opacity="0.5"/>
<circle cx="98.5" cy="80.5" r="0.5" fill="white" fill-opacity="0.5"/>
<circle cx="16.5" cy="12.5" r="0.5" fill="white" fill-opacity="0.5"/>
<circle cx="278.5" cy="171.5" r="0.5" fill="white" fill-opacity="0.4"/>
<circle cx="91.5027" cy="277.503" r="0.502743" fill="white" fill-opacity="0.5"/>
<circle cx="348.627" cy="362.627" r="0.626809" fill="white" fill-opacity="0.3"/>
<circle cx="299.5" cy="80.5" r="0.5" fill="white" fill-opacity="0.3"/>
<circle cx="224.502" cy="74.5016" r="0.501603" fill="white" fill-opacity="0.6"/>
<circle cx="136.619" cy="108.619" r="0.619352" fill="white" fill-opacity="0.4"/>
<circle cx="88.5" cy="276.5" r="0.5" fill="white" fill-opacity="0.3"/>
<circle cx="296.5" cy="189.5" r="0.5" fill="white" fill-opacity="0.4"/>
<circle cx="23.5" cy="325.5" r="0.5" fill="white" fill-opacity="0.6"/>
<circle cx="54.5" cy="188.5" r="0.5" fill="white" fill-opacity="0.5"/>
<circle cx="150.519" cy="-0.481285" r="0.518715" fill="white" fill-opacity="0.4"/>
<circle cx="154.528" cy="345.528" r="0.52824" fill="white" fill-opacity="0.6"/>
<circle cx="324.5" cy="357.5" r="0.5" fill="white" fill-opacity="0.4"/>
<circle cx="67.5" cy="180.5" r="0.5" fill="white" fill-opacity="0.5"/>
<circle cx="174.5" cy="366.5" r="0.5" fill="white" fill-opacity="0.3"/>
<circle cx="266.5" cy="4.5" r="0.5" fill="white" fill-opacity="0.4"/>
<circle cx="355.5" cy="193.5" r="0.5" fill="white" fill-opacity="0.4"/>
<circle cx="48.5" cy="6.5" r="0.5" fill="white" fill-opacity="0.4"/>
<circle cx="305.5" cy="228.5" r="0.5" fill="white" fill-opacity="0.4"/>
<circle cx="229.643" cy="40.6431" r="0.643121" fill="white" fill-opacity="0.4"/>
<circle cx="159.5" cy="45.5" r="0.5" fill="white" fill-opacity="0.4"/>
<circle cx="236.5" cy="345.5" r="0.5" fill="white" fill-opacity="0.6"/>
<circle cx="99.6489" cy="218.649" r="0.648878" fill="white" fill-opacity="0.4"/>
<circle cx="336.749" cy="55.7492" r="0.74922" fill="white" fill-opacity="0.5"/>
<circle cx="244.647" cy="109.647" r="0.64692" fill="white" fill-opacity="0.4"/>
<circle cx="52.5" cy="211.5" r="0.5" fill="white" fill-opacity="0.3"/>
<circle cx="352.5" cy="357.5" r="0.5" fill="white" fill-opacity="0.3"/>
<circle cx="82.5" cy="362.5" r="0.5" fill="white" fill-opacity="0.6"/>
<circle cx="159.5" cy="326.5" r="0.5" fill="white" fill-opacity="0.6"/>
<circle cx="318.678" cy="122.678" r="0.678218" fill="white" fill-opacity="0.3"/>
<circle cx="235.518" cy="74.518" r="0.518012" fill="white" fill-opacity="0.5"/>
<circle cx="57.5" cy="278.5" r="0.5" fill="white" fill-opacity="0.6"/>
<circle cx="331.5" cy="209.5" r="0.5" fill="white" fill-opacity="0.5"/>
<circle cx="9.5" cy="346.5" r="0.5" fill="white" fill-opacity="0.5"/>
<circle cx="68.5" cy="326.5" r="0.5" fill="white" fill-opacity="0.5"/>
<circle cx="75.5" cy="81.5" r="0.5" fill="white" fill-opacity="0.4"/>
</g>
<defs>
<radialGradient id="paint0_radial_737_39123" cx="0" cy="0" r="1" gradientUnits="userSpaceOnUse" gradientTransform="translate(184 184) rotate(90) scale(184)">
<stop stop-color="#D9D9D9"/>
<stop offset="1" stop-color="#737373" stop-opacity="0"/>
</radialGradient>
</defs>
</svg>
